<svg width="716" height="121" viewBox="0 0 716 121" fill="none" xmlns="http://www.w3.org/2000/svg">
<path d="M685.012 64.1039C685.005 64.1039 684.997 64.1039 684.991 64.1039C684.999 64.1039 685.005 64.1039 685.012 64.1039ZM684.902 64.1028C684.896 64.1028 684.891 64.1028 684.885 64.1028C684.891 64.1028 684.898 64.1028 684.902 64.1028ZM684.673 64.0994C684.666 64.0994 684.66 64.0994 684.655 64.0994C684.661 64.0994 684.666 64.0994 684.673 64.0994ZM684.618 64.0982C684.613 64.0982 684.607 64.0982 684.6 64.0982C684.606 64.0982 684.613 64.0982 684.618 64.0982ZM684.566 64.0971C684.559 64.0971 684.552 64.0971 684.547 64.0971C684.553 64.0971 684.558 64.0971 684.566 64.0971ZM684.51 64.096C684.505 64.096 684.499 64.096 684.493 64.096C684.5 64.096 684.505 64.096 684.51 64.096ZM684.456 64.0948C684.45 64.0948 684.447 64.0948 684.441 64.0948C684.446 64.0948 684.45 64.0948 684.456 64.0948ZM684.225 64.088C684.222 64.088 684.221 64.088 684.219 64.088C684.221 64.088 684.223 64.088 684.225 64.088ZM684.172 64.0869C684.169 64.0869 684.165 64.0869 684.162 64.0858C684.164 64.0869 684.169 64.0869 684.172 64.0869ZM684.062 64.0823C684.058 64.0823 684.057 64.0823 684.054 64.0823C684.056 64.0823 684.06 64.0823 684.062 64.0823ZM684.005 64.0801C684.003 64.0801 684.002 64.0801 684 64.0801C684.002 64.0801 684.004 64.0801 684.005 64.0801ZM715.997 33.0075C715.997 33.0018 715.997 32.995 715.997 32.9893C715.997 32.9961 715.997 33.0018 715.997 33.0075ZM715.995 32.777C715.995 32.7702 715.994 32.7656 715.994 32.7599C715.994 32.7656 715.995 32.7713 715.995 32.777ZM715.993 32.6714C715.993 32.6634 715.993 32.6577 715.992 32.6498C715.993 32.6577 715.993 32.6645 715.993 32.6714ZM715.992 32.6169C715.992 32.61 715.992 32.6032 715.991 32.5976C715.992 32.6044 715.992 32.61 715.992 32.6169ZM715.991 32.5612C715.991 32.5567 715.989 32.5499 715.989 32.5453C715.989 32.551 715.991 32.5555 715.991 32.5612ZM715.987 32.4443C715.987 32.442 715.987 32.4409 715.987 32.4386C715.987 32.4397 715.987 32.4431 715.987 32.4443ZM715.985 32.3841V32.3829C715.985 32.3829 715.985 32.3829 715.985 32.3841ZM715.984 32.3296C715.984 32.3273 715.984 32.325 715.984 32.3216C715.984 32.3239 715.984 32.3273 715.984 32.3296ZM715.978 32.1672C715.978 32.1638 715.978 32.1615 715.978 32.1581C715.978 32.1604 715.978 32.1649 715.978 32.1672Z" fill="#A8D4AA"/>
<path d="M612.387 64.1039C612.38 64.1039 612.372 64.1039 612.365 64.1039C612.373 64.1039 612.38 64.1039 612.387 64.1039ZM612.223 64.1028C612.217 64.1028 612.212 64.1028 612.206 64.1028C612.211 64.1028 612.219 64.1028 612.223 64.1028ZM612.046 64.1005C612.041 64.1005 612.039 64.1005 612.035 64.1005C612.038 64.1005 612.042 64.1005 612.046 64.1005ZM611.887 64.0971C611.88 64.0971 611.873 64.0971 611.867 64.0971C611.874 64.0971 611.879 64.0971 611.887 64.0971ZM611.546 64.088C611.543 64.088 611.541 64.088 611.538 64.088C611.539 64.088 611.544 64.088 611.546 64.088ZM611.327 64.0801C611.325 64.0801 611.323 64.0801 611.32 64.0801C611.324 64.0801 611.324 64.0801 611.327 64.0801ZM610.991 64.0653C610.99 64.0653 610.992 64.0653 610.991 64.0653V64.0653ZM643.318 33.0075C643.318 33.0018 643.318 32.995 643.318 32.9893C643.318 32.9961 643.318 33.0018 643.318 33.0075ZM643.315 32.777C643.315 32.7702 643.315 32.7656 643.315 32.7599C643.315 32.7656 643.315 32.7713 643.315 32.777ZM643.314 32.6714C643.314 32.6634 643.313 32.6577 643.313 32.6498C643.313 32.6577 643.314 32.6645 643.314 32.6714ZM643.313 32.6169C643.312 32.61 643.312 32.6032 643.312 32.5976C643.312 32.6044 643.312 32.61 643.313 32.6169ZM643.31 32.5612C643.31 32.5567 643.31 32.5499 643.31 32.5453C643.31 32.551 643.31 32.5555 643.31 32.5612ZM643.308 32.4443C643.308 32.442 643.308 32.4409 643.308 32.4386C643.308 32.4397 643.308 32.4431 643.308 32.4443ZM643.306 32.3841V32.3829C643.306 32.3829 643.306 32.3829 643.306 32.3841ZM643.305 32.3296C643.305 32.3273 643.305 32.325 643.304 32.3216C643.305 32.3239 643.305 32.3273 643.305 32.3296ZM643.299 32.1672C643.299 32.1638 643.299 32.1615 643.298 32.1581C643.299 32.1604 643.299 32.1649 643.299 32.1672Z" fill="#A8D4AA"/>
<path d="M31.0552 64.1039C31.0485 64.1039 31.0436 64.1039 31.037 64.1039C31.0431 64.1039 31.0489 64.1039 31.0552 64.1039ZM30.8955 64.1039C30.8883 64.1039 30.8804 64.1039 30.8737 64.1039C30.8808 64.1039 30.8879 64.1039 30.8955 64.1039ZM30.7855 64.1028C30.7797 64.1028 30.7734 64.1028 30.7678 64.1028C30.773 64.1028 30.7801 64.1028 30.7855 64.1028ZM30.7291 64.1016C30.7243 64.1016 30.7198 64.1016 30.7149 64.1016C30.7189 64.1016 30.7252 64.1016 30.7291 64.1016ZM30.6679 64.1016C30.6657 64.1016 30.6635 64.1016 30.6612 64.1016C30.6635 64.1016 30.6661 64.1016 30.6679 64.1016ZM30.6075 64.1005C30.604 64.1005 30.6009 64.1005 30.5974 64.1005C30.6005 64.1005 30.6045 64.1005 30.6075 64.1005ZM30.5552 64.0994C30.549 64.0994 30.5437 64.0994 30.537 64.0994C30.5433 64.0994 30.549 64.0994 30.5552 64.0994ZM30.4488 64.0971C30.4425 64.0971 30.4355 64.0971 30.4288 64.0971C30.4364 64.0971 30.4416 64.0971 30.4488 64.0971ZM30.3938 64.096C30.388 64.096 30.3818 64.096 30.376 64.096C30.3822 64.096 30.3876 64.096 30.3938 64.096ZM30.2815 64.0937C30.278 64.0937 30.2736 64.0937 30.27 64.0925C30.2745 64.0937 30.2771 64.0937 30.2815 64.0937ZM30.1081 64.088C30.1051 64.088 30.1028 64.088 30.1002 64.088C30.1019 64.088 30.1058 64.088 30.1081 64.088ZM29.9457 64.0823C29.9427 64.0823 29.9387 64.0823 29.936 64.0823C29.9392 64.0823 29.9427 64.0823 29.9457 64.0823ZM29.8894 64.0801C29.8873 64.0801 29.8845 64.0801 29.8824 64.0801C29.8854 64.0801 29.8863 64.0801 29.8894 64.0801ZM29.5536 64.0653H29.5527C29.5536 64.0653 29.5523 64.0653 29.5536 64.0653ZM61.8812 33.0075C61.8812 33.0018 61.8801 32.995 61.8801 32.9893C61.8801 32.9961 61.8812 33.0018 61.8812 33.0075ZM61.8778 32.777C61.8778 32.7702 61.8778 32.7656 61.8767 32.7599C61.8778 32.7656 61.8778 32.7713 61.8778 32.777ZM61.8755 32.6714C61.8755 32.6634 61.8755 32.6577 61.8755 32.6498C61.8755 32.6577 61.8755 32.6645 61.8755 32.6714ZM61.8744 32.6169C61.8744 32.61 61.8744 32.6032 61.8744 32.5976C61.8744 32.6044 61.8744 32.61 61.8744 32.6169ZM61.8733 32.5612C61.8733 32.5567 61.8733 32.5499 61.8721 32.5453C61.8733 32.551 61.8733 32.5555 61.8733 32.5612ZM61.8699 32.4443C61.8699 32.442 61.8699 32.4409 61.8699 32.4386C61.8699 32.4397 61.8699 32.4431 61.8699 32.4443ZM61.8676 32.3841V32.3829C61.8676 32.3829 61.8676 32.3829 61.8676 32.3841ZM61.8665 32.3296C61.8665 32.3273 61.8665 32.325 61.8665 32.3216C61.8665 32.3239 61.8665 32.3273 61.8665 32.3296ZM61.8608 32.1672C61.8608 32.1638 61.8608 32.1615 61.8608 32.1581C61.8608 32.1604 61.8608 32.1649 61.8608 32.1672Z" fill="#EA8592"/>
<path d="M103.409 64.1016C103.404 64.1016 103.4 64.1016 103.395 64.1016C103.399 64.1016 103.404 64.1016 103.409 64.1016ZM103.235 64.0994C103.228 64.0994 103.224 64.0994 103.217 64.0994C103.224 64.0994 103.229 64.0994 103.235 64.0994ZM103.182 64.0982C103.175 64.0982 103.169 64.0982 103.162 64.0982C103.168 64.0982 103.175 64.0982 103.182 64.0982ZM103.128 64.0971C103.123 64.0971 103.115 64.0971 103.109 64.0971C103.116 64.0971 103.122 64.0971 103.128 64.0971ZM103.074 64.096C103.068 64.096 103.061 64.096 103.056 64.096C103.062 64.096 103.068 64.096 103.074 64.096ZM103.019 64.0948C103.014 64.0948 103.009 64.0948 103.003 64.0948C103.008 64.0948 103.014 64.0948 103.019 64.0948ZM102.961 64.0937C102.958 64.0937 102.953 64.0937 102.95 64.0925C102.955 64.0937 102.957 64.0937 102.961 64.0937ZM102.788 64.088C102.785 64.088 102.783 64.088 102.78 64.088C102.782 64.088 102.785 64.088 102.788 64.088ZM102.625 64.0823C102.623 64.0823 102.619 64.0823 102.616 64.0823C102.619 64.0823 102.622 64.0823 102.625 64.0823ZM102.57 64.0801C102.567 64.0801 102.564 64.0801 102.562 64.0801C102.565 64.0801 102.566 64.0801 102.57 64.0801ZM102.234 64.0653H102.232C102.234 64.0653 102.232 64.0653 102.234 64.0653ZM134.561 33.0075C134.561 33.0018 134.561 32.995 134.561 32.9893C134.561 32.9961 134.561 33.0018 134.561 33.0075ZM134.557 32.777C134.557 32.7702 134.557 32.7656 134.557 32.7599C134.557 32.7656 134.557 32.7713 134.557 32.777ZM134.555 32.6714C134.555 32.6634 134.555 32.6577 134.555 32.6498C134.555 32.6577 134.555 32.6645 134.555 32.6714ZM134.554 32.6169C134.554 32.61 134.554 32.6032 134.554 32.5976C134.554 32.6044 134.554 32.61 134.554 32.6169ZM134.553 32.5612C134.553 32.5567 134.553 32.5499 134.553 32.5453C134.553 32.551 134.553 32.5555 134.553 32.5612ZM134.55 32.4443C134.55 32.442 134.55 32.4409 134.55 32.4386C134.55 32.4397 134.55 32.4431 134.55 32.4443ZM134.548 32.3841V32.3829C134.548 32.3829 134.548 32.3829 134.548 32.3841ZM134.546 32.3296C134.546 32.3273 134.546 32.325 134.546 32.3216C134.546 32.3239 134.546 32.3273 134.546 32.3296ZM134.54 32.1672C134.54 32.1638 134.54 32.1615 134.54 32.1581C134.54 32.1604 134.54 32.1649 134.54 32.1672Z" fill="#EA8592"/>
<path d="M176.362 64.1039C176.354 64.1039 176.347 64.1039 176.34 64.1039C176.348 64.1039 176.354 64.1039 176.362 64.1039ZM176.308 64.1039C176.302 64.1039 176.294 64.1039 176.287 64.1039C176.294 64.1039 176.3 64.1039 176.308 64.1039ZM176.255 64.1039C176.248 64.1039 176.24 64.1039 176.234 64.1039C176.24 64.1039 176.247 64.1039 176.255 64.1039ZM176.145 64.1028C176.139 64.1028 176.134 64.1028 176.128 64.1028C176.132 64.1028 176.139 64.1028 176.145 64.1028ZM175.808 64.0971C175.802 64.0971 175.795 64.0971 175.788 64.0971C175.796 64.0971 175.801 64.0971 175.808 64.0971ZM175.753 64.096C175.747 64.096 175.742 64.096 175.736 64.096C175.742 64.096 175.746 64.096 175.753 64.096ZM175.64 64.0937C175.637 64.0937 175.633 64.0937 175.629 64.0925C175.633 64.0937 175.636 64.0937 175.64 64.0937ZM175.578 64.0914C175.577 64.0914 175.577 64.0914 175.576 64.0914H175.578ZM175.304 64.0823C175.301 64.0823 175.299 64.0823 175.297 64.0823C175.298 64.0823 175.301 64.0823 175.304 64.0823ZM175.247 64.0801C175.246 64.0801 175.244 64.0801 175.242 64.0801C175.243 64.0801 175.247 64.0801 175.247 64.0801ZM207.24 33.0075C207.24 33.0018 207.24 32.995 207.24 32.9893C207.24 32.9961 207.24 33.0018 207.24 33.0075ZM207.237 32.777C207.237 32.7702 207.237 32.7656 207.237 32.7599C207.237 32.7656 207.237 32.7713 207.237 32.777ZM207.235 32.6714C207.235 32.6634 207.235 32.6577 207.235 32.6498C207.235 32.6577 207.235 32.6645 207.235 32.6714ZM207.233 32.6169C207.233 32.61 207.233 32.6032 207.233 32.5976C207.233 32.6044 207.233 32.61 207.233 32.6169ZM207.232 32.5612C207.232 32.5567 207.232 32.5499 207.232 32.5453C207.232 32.551 207.232 32.5555 207.232 32.5612ZM207.229 32.4443C207.229 32.442 207.229 32.4409 207.229 32.4386C207.229 32.4397 207.229 32.4431 207.229 32.4443ZM207.228 32.3841V32.3829C207.228 32.3829 207.228 32.3829 207.228 32.3841ZM207.225 32.3296C207.225 32.3273 207.225 32.325 207.225 32.3216C207.225 32.3239 207.225 32.3273 207.225 32.3296ZM207.22 32.1672C207.22 32.1638 207.22 32.1615 207.22 32.1581C207.22 32.1604 207.22 32.1649 207.22 32.1672Z" fill="#EA8592"/>
<path d="M249.042 64.1039C249.035 64.1039 249.028 64.1039 249.02 64.1039C249.028 64.1039 249.034 64.1039 249.042 64.1039ZM248.988 64.1039C248.981 64.1039 248.973 64.1039 248.967 64.1039C248.975 64.1039 248.981 64.1039 248.988 64.1039ZM248.935 64.1039C248.928 64.1039 248.92 64.1039 248.913 64.1039C248.92 64.1039 248.927 64.1039 248.935 64.1039ZM248.825 64.1028C248.819 64.1028 248.813 64.1028 248.808 64.1028C248.812 64.1028 248.819 64.1028 248.825 64.1028ZM248.707 64.1016C248.705 64.1016 248.702 64.1016 248.701 64.1016C248.703 64.1016 248.704 64.1016 248.707 64.1016ZM248.646 64.1005C248.643 64.1005 248.641 64.1005 248.637 64.1005C248.641 64.1005 248.644 64.1005 248.646 64.1005ZM248.541 64.0982C248.534 64.0982 248.528 64.0982 248.523 64.0982C248.528 64.0982 248.535 64.0982 248.541 64.0982ZM248.487 64.0971C248.482 64.0971 248.475 64.0971 248.469 64.0971C248.476 64.0971 248.481 64.0971 248.487 64.0971ZM248.258 64.0914C248.257 64.0914 248.257 64.0914 248.257 64.0914H248.258ZM248.093 64.0869C248.09 64.0869 248.087 64.0869 248.083 64.0858C248.087 64.0869 248.091 64.0869 248.093 64.0869ZM247.983 64.0823C247.981 64.0823 247.979 64.0823 247.976 64.0823C247.979 64.0823 247.982 64.0823 247.983 64.0823ZM247.928 64.0801C247.925 64.0801 247.924 64.0801 247.922 64.0801C247.923 64.0801 247.926 64.0801 247.928 64.0801ZM279.92 33.0075C279.92 33.0018 279.92 32.995 279.92 32.9893C279.92 32.9961 279.92 33.0018 279.92 33.0075ZM279.917 32.777C279.917 32.7702 279.917 32.7656 279.917 32.7599C279.917 32.7656 279.917 32.7713 279.917 32.777ZM279.915 32.6714C279.914 32.6634 279.914 32.6577 279.914 32.6498C279.914 32.6577 279.914 32.6645 279.915 32.6714ZM279.913 32.6169C279.913 32.61 279.913 32.6032 279.913 32.5976C279.913 32.6044 279.913 32.61 279.913 32.6169ZM279.912 32.5612C279.912 32.5567 279.912 32.5499 279.912 32.5453C279.912 32.551 279.912 32.5555 279.912 32.5612ZM279.91 32.4443C279.91 32.442 279.91 32.4409 279.909 32.4386C279.909 32.4397 279.91 32.4431 279.91 32.4443ZM279.907 32.3841V32.3829C279.907 32.3829 279.907 32.3829 279.907 32.3841ZM279.906 32.3296C279.905 32.3273 279.905 32.325 279.905 32.3216C279.905 32.3239 279.905 32.3273 279.906 32.3296ZM279.901 32.1672C279.901 32.1638 279.899 32.1615 279.899 32.1581C279.899 32.1604 279.901 32.1649 279.901 32.1672Z" fill="#EA8592"/>
<path d="M321.774 64.1039C321.767 64.1039 321.763 64.1039 321.756 64.1039C321.761 64.1039 321.767 64.1039 321.774 64.1039ZM321.504 64.1028C321.498 64.1028 321.492 64.1028 321.487 64.1028C321.491 64.1028 321.499 64.1028 321.504 64.1028ZM321.386 64.1016C321.384 64.1016 321.381 64.1016 321.38 64.1016C321.382 64.1016 321.383 64.1016 321.386 64.1016ZM321.327 64.1005C321.322 64.1005 321.32 64.1005 321.316 64.1005C321.32 64.1005 321.323 64.1005 321.327 64.1005ZM321.273 64.0994C321.267 64.0994 321.262 64.0994 321.256 64.0994C321.263 64.0994 321.267 64.0994 321.273 64.0994ZM321.168 64.0971C321.161 64.0971 321.154 64.0971 321.148 64.0971C321.155 64.0971 321.16 64.0971 321.168 64.0971ZM321.112 64.096C321.106 64.096 321.101 64.096 321.095 64.096C321.102 64.096 321.106 64.096 321.112 64.096ZM320.998 64.0937C320.996 64.0937 320.992 64.0937 320.989 64.0925C320.993 64.0937 320.996 64.0937 320.998 64.0937ZM320.937 64.0914C320.936 64.0914 320.936 64.0914 320.936 64.0914H320.937ZM320.826 64.088C320.823 64.088 320.822 64.088 320.82 64.088C320.822 64.088 320.825 64.088 320.826 64.088ZM320.772 64.0869C320.769 64.0869 320.767 64.0869 320.763 64.0858C320.766 64.0869 320.77 64.0869 320.772 64.0869ZM320.663 64.0823C320.66 64.0823 320.659 64.0823 320.655 64.0823C320.658 64.0823 320.661 64.0823 320.663 64.0823ZM320.607 64.0801C320.604 64.0801 320.603 64.0801 320.602 64.0801C320.603 64.0801 320.605 64.0801 320.607 64.0801ZM352.599 33.0075C352.599 33.0018 352.599 32.995 352.599 32.9893C352.599 32.9961 352.599 33.0018 352.599 33.0075ZM352.597 32.777C352.596 32.7702 352.596 32.7656 352.596 32.7599C352.596 32.7656 352.596 32.7713 352.597 32.777ZM352.594 32.6714C352.594 32.6634 352.593 32.6577 352.593 32.6498C352.593 32.6577 352.594 32.6645 352.594 32.6714ZM352.593 32.6169C352.593 32.61 352.592 32.6032 352.592 32.5976C352.592 32.6044 352.593 32.61 352.593 32.6169ZM352.592 32.5612C352.591 32.5567 352.591 32.5499 352.591 32.5453C352.591 32.551 352.591 32.5555 352.592 32.5612ZM352.589 32.4443C352.589 32.442 352.589 32.4409 352.589 32.4386C352.589 32.4397 352.589 32.4431 352.589 32.4443ZM352.586 32.3841V32.3829C352.586 32.3829 352.586 32.3829 352.586 32.3841ZM352.585 32.3296C352.585 32.3273 352.585 32.325 352.585 32.3216C352.585 32.3239 352.585 32.3273 352.585 32.3296ZM352.58 32.1672C352.58 32.1638 352.58 32.1615 352.579 32.1581C352.58 32.1604 352.58 32.1649 352.58 32.1672Z" fill="#EA8592"/>
<path d="M394.454 64.1039C394.447 64.1039 394.442 64.1039 394.435 64.1039C394.442 64.1039 394.448 64.1039 394.454 64.1039ZM394.293 64.1039C394.287 64.1039 394.279 64.1039 394.272 64.1039C394.28 64.1039 394.287 64.1039 394.293 64.1039ZM394.183 64.1028C394.178 64.1028 394.172 64.1028 394.166 64.1028C394.172 64.1028 394.179 64.1028 394.183 64.1028ZM393.954 64.0994C393.947 64.0994 393.941 64.0994 393.936 64.0994C393.943 64.0994 393.947 64.0994 393.954 64.0994ZM393.899 64.0982C393.894 64.0982 393.888 64.0982 393.881 64.0982C393.887 64.0982 393.894 64.0982 393.899 64.0982ZM393.847 64.0971C393.84 64.0971 393.835 64.0971 393.828 64.0971C393.835 64.0971 393.839 64.0971 393.847 64.0971ZM393.792 64.096C393.786 64.096 393.78 64.096 393.775 64.096C393.781 64.096 393.786 64.096 393.792 64.096ZM393.453 64.0869C393.45 64.0869 393.446 64.0869 393.443 64.0858C393.445 64.0869 393.45 64.0869 393.453 64.0869ZM393.343 64.0823C393.34 64.0823 393.339 64.0823 393.335 64.0823C393.337 64.0823 393.341 64.0823 393.343 64.0823ZM425.28 33.0075C425.28 33.0018 425.28 32.995 425.28 32.9893C425.28 32.9961 425.28 33.0018 425.28 33.0075ZM425.276 32.777C425.276 32.7702 425.276 32.7656 425.276 32.7599C425.276 32.7656 425.276 32.7713 425.276 32.777ZM425.274 32.6702C425.274 32.6634 425.274 32.6589 425.274 32.6509C425.274 32.6577 425.274 32.6634 425.274 32.6702ZM425.273 32.6157C425.273 32.6089 425.273 32.6044 425.273 32.5987C425.273 32.6044 425.273 32.61 425.273 32.6157ZM425.272 32.5601C425.272 32.5555 425.272 32.551 425.272 32.5453C425.272 32.5499 425.272 32.5555 425.272 32.5601ZM425.268 32.4397V32.4386C425.268 32.4397 425.268 32.4397 425.268 32.4397ZM425.259 32.1661C425.259 32.1638 425.259 32.1604 425.259 32.1592C425.259 32.1615 425.259 32.1638 425.259 32.1661ZM425.257 32.1093C425.257 32.1081 425.257 32.1059 425.257 32.1047C425.257 32.107 425.257 32.1081 425.257 32.1093Z" fill="#EA8592"/>
<path d="M466.973 64.1039C466.966 64.1039 466.958 64.1039 466.952 64.1039C466.96 64.1039 466.966 64.1039 466.973 64.1039ZM466.807 64.1016C466.803 64.1016 466.798 64.1016 466.794 64.1016C466.797 64.1016 466.803 64.1016 466.807 64.1016ZM466.58 64.0982C466.573 64.0982 466.568 64.0982 466.561 64.0982C466.567 64.0982 466.573 64.0982 466.58 64.0982ZM466.472 64.096C466.467 64.096 466.46 64.096 466.454 64.096C466.461 64.096 466.466 64.096 466.472 64.096ZM466.359 64.0937C466.355 64.0937 466.352 64.0937 466.349 64.0925C466.352 64.0937 466.357 64.0937 466.359 64.0937ZM466.133 64.0869C466.129 64.0869 466.125 64.0869 466.122 64.0858C466.125 64.0858 466.129 64.0869 466.133 64.0869ZM466.024 64.0823C466.02 64.0823 466.017 64.0823 466.015 64.0823C466.018 64.0823 466.02 64.0823 466.024 64.0823ZM465.967 64.0801C465.966 64.0801 465.963 64.0801 465.961 64.0801C465.963 64.0801 465.965 64.0801 465.967 64.0801ZM497.959 33.0075C497.959 33.0018 497.959 32.995 497.959 32.9893C497.959 32.9961 497.959 33.0018 497.959 33.0075ZM497.956 32.777C497.956 32.7702 497.956 32.7656 497.956 32.7599C497.956 32.7656 497.956 32.7713 497.956 32.777ZM497.954 32.6714C497.954 32.6634 497.954 32.6577 497.954 32.6498C497.954 32.6577 497.954 32.6645 497.954 32.6714ZM497.953 32.6169C497.953 32.61 497.953 32.6032 497.953 32.5976C497.953 32.6044 497.953 32.61 497.953 32.6169ZM497.951 32.5612C497.951 32.5567 497.951 32.5499 497.951 32.5453C497.951 32.551 497.951 32.5555 497.951 32.5612ZM497.948 32.4443C497.948 32.442 497.948 32.4409 497.948 32.4386C497.948 32.4397 497.948 32.4431 497.948 32.4443ZM497.947 32.3841V32.3829C497.947 32.3829 497.947 32.3829 497.947 32.3841ZM497.945 32.3296C497.945 32.3273 497.945 32.325 497.945 32.3216C497.945 32.3239 497.945 32.3273 497.945 32.3296ZM497.939 32.1672C497.939 32.1638 497.939 32.1615 497.939 32.1581C497.939 32.1604 497.939 32.1649 497.939 32.1672Z" fill="#FAB562"/>
<path d="M539.76 64.1039C539.753 64.1039 539.745 64.1039 539.739 64.1039C539.746 64.1039 539.752 64.1039 539.76 64.1039ZM539.653 64.1039C539.647 64.1039 539.639 64.1039 539.632 64.1039C539.639 64.1039 539.645 64.1039 539.653 64.1039ZM539.599 64.1028C539.592 64.1028 539.586 64.1028 539.58 64.1028C539.585 64.1028 539.592 64.1028 539.599 64.1028ZM539.543 64.1028C539.538 64.1028 539.532 64.1028 539.526 64.1028C539.531 64.1028 539.538 64.1028 539.543 64.1028ZM539.486 64.1016C539.482 64.1016 539.477 64.1016 539.473 64.1016C539.477 64.1016 539.483 64.1016 539.486 64.1016ZM539.426 64.1016C539.424 64.1016 539.422 64.1016 539.419 64.1016C539.421 64.1016 539.424 64.1016 539.426 64.1016ZM539.365 64.1005C539.362 64.1005 539.358 64.1005 539.355 64.1005C539.358 64.1005 539.363 64.1005 539.365 64.1005ZM539.259 64.0982C539.253 64.0982 539.247 64.0982 539.24 64.0982C539.247 64.0982 539.254 64.0982 539.259 64.0982ZM539.207 64.0971C539.2 64.0971 539.193 64.0971 539.187 64.0971C539.195 64.0971 539.199 64.0971 539.207 64.0971ZM539.039 64.0937C539.036 64.0937 539.031 64.0937 539.028 64.0925C539.032 64.0937 539.036 64.0937 539.039 64.0937ZM538.866 64.088C538.863 64.088 538.861 64.088 538.857 64.088C538.86 64.088 538.864 64.088 538.866 64.088ZM538.704 64.0823C538.701 64.0823 538.696 64.0823 538.694 64.0823C538.697 64.0823 538.701 64.0823 538.704 64.0823ZM538.647 64.0801C538.645 64.0801 538.643 64.0801 538.64 64.0801C538.643 64.0801 538.644 64.0801 538.647 64.0801ZM538.311 64.0653H538.31C538.311 64.0653 538.31 64.0653 538.311 64.0653ZM570.639 33.0075C570.639 33.0018 570.639 32.995 570.639 32.9893C570.639 32.9961 570.639 33.0018 570.639 33.0075ZM570.635 32.777C570.635 32.7702 570.635 32.7656 570.635 32.7599C570.635 32.7656 570.635 32.7713 570.635 32.777ZM570.633 32.6714C570.633 32.6634 570.633 32.6577 570.633 32.6498C570.633 32.6577 570.633 32.6645 570.633 32.6714ZM570.632 32.6169C570.632 32.61 570.632 32.6032 570.632 32.5976C570.632 32.6044 570.632 32.61 570.632 32.6169ZM570.631 32.5612C570.631 32.5567 570.631 32.5499 570.631 32.5453C570.631 32.551 570.631 32.5555 570.631 32.5612ZM570.628 32.4443C570.628 32.442 570.627 32.4409 570.627 32.4386C570.627 32.4397 570.628 32.4431 570.628 32.4443ZM570.626 32.3841V32.3829C570.626 32.3829 570.626 32.3829 570.626 32.3841ZM570.625 32.3296C570.624 32.3273 570.624 32.325 570.624 32.3216C570.624 32.3239 570.624 32.3273 570.625 32.3296ZM570.619 32.1672C570.618 32.1638 570.618 32.1615 570.618 32.1581C570.618 32.1604 570.618 32.1649 570.619 32.1672Z" fill="#FAB562"/>
<circle cx="679.095" cy="30.6592" r="29.6593" stroke="#3B9640" stroke-width="2"/>
<mask id="mask0_8_9444" style="mask-type:luminance" maskUnits="userSpaceOnUse" x="662" y="17" width="10" height="10">
<path d="M666.843 26.2579C664.386 26.2579 662.393 24.2662 662.393 21.8089C662.393 19.3517 664.386 17.36 666.843 17.36C669.299 17.36 671.292 19.3517 671.292 21.8089C671.292 24.2662 669.299 26.2579 666.843 26.2579Z" fill="white"/>
</mask>
<g mask="url(#mask0_8_9444)">
<path d="M666.843 26.2579C664.386 26.2579 662.393 24.2662 662.393 21.8089C662.393 19.3517 664.386 17.36 666.843 17.36C669.299 17.36 671.292 19.3517 671.292 21.8089C671.292 24.2662 669.299 26.2579 666.843 26.2579Z" fill="#388A3D"/>
</g>
<mask id="mask1_8_9444" style="mask-type:luminance" maskUnits="userSpaceOnUse" x="687" y="17" width="10" height="10">
<path d="M691.758 26.2579C689.302 26.2579 687.309 24.2662 687.309 21.8089C687.309 19.3517 689.302 17.36 691.758 17.36C694.215 17.36 696.207 19.3517 696.207 21.8089C696.207 24.2662 694.215 26.2579 691.758 26.2579Z" fill="white"/>
</mask>
<g mask="url(#mask1_8_9444)">
<path d="M691.758 26.2579C689.302 26.2579 687.309 24.2662 687.309 21.8089C687.309 19.3517 689.302 17.36 691.758 17.36C694.215 17.36 696.207 19.3517 696.207 21.8089C696.207 24.2662 694.215 26.2579 691.758 26.2579Z" fill="#388A3D"/>
</g>
<mask id="mask2_8_9444" style="mask-type:luminance" maskUnits="userSpaceOnUse" x="657" y="12" width="8" height="8">
<path d="M658.458 19.6469C658.097 19.6469 657.804 19.3539 657.804 18.9928C657.804 15.6782 660.501 12.9813 663.816 12.9813C664.177 12.9813 664.47 13.2743 664.47 13.6354C664.47 13.9976 664.177 14.2894 663.816 14.2894C661.222 14.2894 659.113 16.3992 659.113 18.9928C659.113 19.3539 658.82 19.6469 658.458 19.6469Z" fill="white"/>
</mask>
<g mask="url(#mask2_8_9444)">
<path d="M658.458 19.6469C658.097 19.6469 657.804 19.3539 657.804 18.9928C657.804 15.6782 660.501 12.9813 663.816 12.9813C664.177 12.9813 664.47 13.2743 664.47 13.6354C664.47 13.9976 664.177 14.2894 663.816 14.2894C661.222 14.2894 659.113 16.3992 659.113 18.9928C659.113 19.3539 658.82 19.6469 658.458 19.6469Z" fill="#388A3D"/>
</g>
<mask id="mask3_8_9444" style="mask-type:luminance" maskUnits="userSpaceOnUse" x="694" y="12" width="7" height="8">
<path d="M700.142 19.6469C699.78 19.6469 699.487 19.3539 699.487 18.9928C699.487 16.3992 697.378 14.2894 694.785 14.2894C694.422 14.2894 694.129 13.9976 694.129 13.6354C694.129 13.2743 694.422 12.9813 694.785 12.9813C698.099 12.9813 700.796 15.6782 700.796 18.9928C700.796 19.3539 700.503 19.6469 700.142 19.6469Z" fill="white"/>
</mask>
<g mask="url(#mask3_8_9444)">
<path d="M700.142 19.6469C699.78 19.6469 699.487 19.3539 699.487 18.9928C699.487 16.3992 697.378 14.2894 694.785 14.2894C694.422 14.2894 694.129 13.9976 694.129 13.6354C694.129 13.2743 694.422 12.9813 694.785 12.9813C698.099 12.9813 700.796 15.6782 700.796 18.9928C700.796 19.3539 700.503 19.6469 700.142 19.6469Z" fill="#388A3D"/>
</g>
<mask id="mask4_8_9444" style="mask-type:luminance" maskUnits="userSpaceOnUse" x="666" y="35" width="27" height="14">
<path d="M679.3 48.5438C672.011 48.5438 666.101 42.6345 666.101 35.3444H692.499C692.499 42.6345 686.59 48.5438 679.3 48.5438Z" fill="white"/>
</mask>
<g mask="url(#mask4_8_9444)">
<path d="M679.3 48.5438C672.011 48.5438 666.101 42.6345 666.101 35.3444H692.499C692.499 42.6345 686.59 48.5438 679.3 48.5438Z" fill="#388A3D"/>
</g>
<circle cx="607.557" cy="30.6592" r="29.6593" stroke="#3B9640" stroke-width="2"/>
<mask id="mask5_8_9444" style="mask-type:luminance" maskUnits="userSpaceOnUse" x="590" y="17" width="10" height="10">
<path d="M595.304 26.2579C592.846 26.2579 590.854 24.2662 590.854 21.8089C590.854 19.3517 592.846 17.36 595.304 17.36C597.761 17.36 599.752 19.3517 599.752 21.8089C599.752 24.2662 597.761 26.2579 595.304 26.2579Z" fill="white"/>
</mask>
<g mask="url(#mask5_8_9444)">
<path d="M595.304 26.2579C592.846 26.2579 590.854 24.2662 590.854 21.8089C590.854 19.3517 592.846 17.36 595.304 17.36C597.761 17.36 599.752 19.3517 599.752 21.8089C599.752 24.2662 597.761 26.2579 595.304 26.2579Z" fill="#388A3D"/>
</g>
<mask id="mask6_8_9444" style="mask-type:luminance" maskUnits="userSpaceOnUse" x="615" y="17" width="10" height="10">
<path d="M620.22 26.2579C617.762 26.2579 615.771 24.2662 615.771 21.8089C615.771 19.3517 617.762 17.36 620.22 17.36C622.677 17.36 624.668 19.3517 624.668 21.8089C624.668 24.2662 622.677 26.2579 620.22 26.2579Z" fill="white"/>
</mask>
<g mask="url(#mask6_8_9444)">
<path d="M620.22 26.2579C617.762 26.2579 615.771 24.2662 615.771 21.8089C615.771 19.3517 617.762 17.36 620.22 17.36C622.677 17.36 624.668 19.3517 624.668 21.8089C624.668 24.2662 622.677 26.2579 620.22 26.2579Z" fill="#388A3D"/>
</g>
<mask id="mask7_8_9444" style="mask-type:luminance" maskUnits="userSpaceOnUse" x="586" y="12" width="7" height="8">
<path d="M586.92 19.6469C586.559 19.6469 586.266 19.3539 586.266 18.9928C586.266 15.6782 588.961 12.9813 592.276 12.9813C592.638 12.9813 592.931 13.2743 592.931 13.6354C592.931 13.9976 592.638 14.2894 592.276 14.2894C589.684 14.2894 587.574 16.3992 587.574 18.9928C587.574 19.3539 587.282 19.6469 586.92 19.6469Z" fill="white"/>
</mask>
<g mask="url(#mask7_8_9444)">
<path d="M586.92 19.6469C586.559 19.6469 586.266 19.3539 586.266 18.9928C586.266 15.6782 588.961 12.9813 592.276 12.9813C592.638 12.9813 592.931 13.2743 592.931 13.6354C592.931 13.9976 592.638 14.2894 592.276 14.2894C589.684 14.2894 587.574 16.3992 587.574 18.9928C587.574 19.3539 587.282 19.6469 586.92 19.6469Z" fill="#388A3D"/>
</g>
<mask id="mask8_8_9444" style="mask-type:luminance" maskUnits="userSpaceOnUse" x="622" y="12" width="8" height="8">
<path d="M628.603 19.6469C628.242 19.6469 627.949 19.3539 627.949 18.9928C627.949 16.3992 625.839 14.2894 623.247 14.2894C622.884 14.2894 622.591 13.9976 622.591 13.6354C622.591 13.2743 622.884 12.9813 623.247 12.9813C626.561 12.9813 629.257 15.6782 629.257 18.9928C629.257 19.3539 628.965 19.6469 628.603 19.6469Z" fill="white"/>
</mask>
<g mask="url(#mask8_8_9444)">
<path d="M628.603 19.6469C628.242 19.6469 627.949 19.3539 627.949 18.9928C627.949 16.3992 625.839 14.2894 623.247 14.2894C622.884 14.2894 622.591 13.9976 622.591 13.6354C622.591 13.2743 622.884 12.9813 623.247 12.9813C626.561 12.9813 629.257 15.6782 629.257 18.9928C629.257 19.3539 628.965 19.6469 628.603 19.6469Z" fill="#388A3D"/>
</g>
<mask id="mask9_8_9444" style="mask-type:luminance" maskUnits="userSpaceOnUse" x="594" y="35" width="27" height="14">
<path d="M607.761 48.5438C600.471 48.5438 594.562 42.6345 594.562 35.3444H620.961C620.961 42.6345 615.052 48.5438 607.761 48.5438Z" fill="white"/>
</mask>
<g mask="url(#mask9_8_9444)">
<path d="M607.761 48.5438C600.471 48.5438 594.562 42.6345 594.562 35.3444H620.961C620.961 42.6345 615.052 48.5438 607.761 48.5438Z" fill="#388A3D"/>
</g>
<circle cx="35.2511" cy="30.6592" r="29.6593" stroke="#F0383D" stroke-width="2"/>
<mask id="mask10_8_9444" style="mask-type:luminance" maskUnits="userSpaceOnUse" x="18" y="20" width="10" height="10">
<path d="M22.6677 29.6542C20.2103 29.6542 18.2183 27.6625 18.2183 25.2052C18.2183 22.748 20.2103 20.7563 22.6677 20.7563C25.1245 20.7563 27.1166 22.748 27.1166 25.2052C27.1166 27.6625 25.1245 29.6542 22.6677 29.6542Z" fill="white"/>
</mask>
<g mask="url(#mask10_8_9444)">
<path d="M22.6677 29.6542C20.2103 29.6542 18.2183 27.6625 18.2183 25.2052C18.2183 22.748 20.2103 20.7563 22.6677 20.7563C25.1245 20.7563 27.1166 22.748 27.1166 25.2052C27.1166 27.6625 25.1245 29.6542 22.6677 29.6542Z" fill="#DC2F3C"/>
</g>
<mask id="mask11_8_9444" style="mask-type:luminance" maskUnits="userSpaceOnUse" x="43" y="20" width="10" height="10">
<path d="M47.5832 29.6542C45.1258 29.6542 43.1338 27.6625 43.1338 25.2052C43.1338 22.748 45.1258 20.7563 47.5832 20.7563C50.0397 20.7563 52.0326 22.748 52.0326 25.2052C52.0326 27.6625 50.0397 29.6542 47.5832 29.6542Z" fill="white"/>
</mask>
<g mask="url(#mask11_8_9444)">
<path d="M47.5832 29.6542C45.1258 29.6542 43.1338 27.6625 43.1338 25.2052C43.1338 22.748 45.1258 20.7563 47.5832 20.7563C50.0397 20.7563 52.0326 22.748 52.0326 25.2052C52.0326 27.6625 50.0397 29.6542 47.5832 29.6542Z" fill="#DC2F3C"/>
</g>
<mask id="mask12_8_9444" style="mask-type:luminance" maskUnits="userSpaceOnUse" x="22" y="38" width="26" height="10">
<path d="M47.6126 47.6921C44.0663 46.2125 39.7672 45.3405 35.1249 45.3405C30.4826 45.3405 26.1835 46.2125 22.6372 47.6921C24.4075 42.4891 29.3235 38.7408 35.1249 38.7408C40.9262 38.7408 45.8423 42.4891 47.6126 47.6921Z" fill="white"/>
</mask>
<g mask="url(#mask12_8_9444)">
<path d="M47.6126 47.6921C44.0663 46.2125 39.7672 45.3405 35.1249 45.3405C30.4826 45.3405 26.1835 46.2125 22.6372 47.6921C24.4075 42.4891 29.3235 38.7408 35.1249 38.7408C40.9262 38.7408 45.8423 42.4891 47.6126 47.6921Z" fill="#DC2F3C"/>
</g>
<mask id="mask13_8_9444" style="mask-type:luminance" maskUnits="userSpaceOnUse" x="20" y="14" width="10" height="8">
<path d="M29.1131 21.4103C28.9898 21.4103 28.8648 21.3751 28.7543 21.3024L20.8074 16.0653C20.5054 15.8666 20.4219 15.4612 20.6206 15.1592C20.7471 14.9684 20.9564 14.8651 21.1693 14.8651C21.2926 14.8651 21.4168 14.9003 21.5269 14.973L29.4733 20.21C29.7758 20.4087 29.8588 20.8141 29.6601 21.1162C29.534 21.3069 29.326 21.4103 29.1131 21.4103Z" fill="white"/>
</mask>
<g mask="url(#mask13_8_9444)">
<path d="M29.1131 21.4103C28.9898 21.4103 28.8648 21.3751 28.7543 21.3024L20.8074 16.0653C20.5054 15.8666 20.4219 15.4612 20.6206 15.1592C20.7471 14.9684 20.9564 14.8651 21.1693 14.8651C21.2926 14.8651 21.4168 14.9003 21.5269 14.973L29.4733 20.21C29.7758 20.4087 29.8588 20.8141 29.6601 21.1162C29.534 21.3069 29.326 21.4103 29.1131 21.4103Z" fill="#DC2F3C"/>
</g>
<mask id="mask14_8_9444" style="mask-type:luminance" maskUnits="userSpaceOnUse" x="40" y="14" width="10" height="8">
<path d="M41.1369 21.4103C40.924 21.4103 40.7159 21.3069 40.59 21.1162C40.3913 20.8141 40.4742 20.4087 40.7767 20.21L48.724 14.973C48.835 14.9003 48.9601 14.8651 49.0834 14.8651C49.2963 14.8651 49.5047 14.9684 49.6298 15.1592C49.8285 15.4612 49.7456 15.8666 49.4435 16.0653L41.4957 21.3024C41.3853 21.3751 41.2602 21.4103 41.1369 21.4103Z" fill="white"/>
</mask>
<g mask="url(#mask14_8_9444)">
<path d="M41.1369 21.4103C40.924 21.4103 40.7159 21.3069 40.59 21.1162C40.3913 20.8141 40.4742 20.4087 40.7767 20.21L48.724 14.973C48.835 14.9003 48.9601 14.8651 49.0834 14.8651C49.2963 14.8651 49.5047 14.9684 49.6298 15.1592C49.8285 15.4612 49.7456 15.8666 49.4435 16.0653L41.4957 21.3024C41.3853 21.3751 41.2602 21.4103 41.1369 21.4103Z" fill="#DC2F3C"/>
</g>
<circle cx="106.79" cy="30.6592" r="29.6593" stroke="#F0383D" stroke-width="2"/>
<mask id="mask15_8_9444" style="mask-type:luminance" maskUnits="userSpaceOnUse" x="89" y="20" width="10" height="10">
<path d="M94.2058 29.6542C91.7485 29.6542 89.7568 27.6625 89.7568 25.2052C89.7568 22.748 91.7485 20.7563 94.2058 20.7563C96.6631 20.7563 98.6548 22.748 98.6548 25.2052C98.6548 27.6625 96.6631 29.6542 94.2058 29.6542Z" fill="white"/>
</mask>
<g mask="url(#mask15_8_9444)">
<path d="M94.2058 29.6542C91.7485 29.6542 89.7568 27.6625 89.7568 25.2052C89.7568 22.748 91.7485 20.7563 94.2058 20.7563C96.6631 20.7563 98.6548 22.748 98.6548 25.2052C98.6548 27.6625 96.6631 29.6542 94.2058 29.6542Z" fill="#DC2F3C"/>
</g>
<mask id="mask16_8_9444" style="mask-type:luminance" maskUnits="userSpaceOnUse" x="114" y="20" width="10" height="10">
<path d="M119.122 29.6542C116.664 29.6542 114.671 27.6625 114.671 25.2052C114.671 22.748 116.664 20.7563 119.122 20.7563C121.579 20.7563 123.571 22.748 123.571 25.2052C123.571 27.6625 121.579 29.6542 119.122 29.6542Z" fill="white"/>
</mask>
<g mask="url(#mask16_8_9444)">
<path d="M119.122 29.6542C116.664 29.6542 114.671 27.6625 114.671 25.2052C114.671 22.748 116.664 20.7563 119.122 20.7563C121.579 20.7563 123.571 22.748 123.571 25.2052C123.571 27.6625 121.579 29.6542 119.122 29.6542Z" fill="#DC2F3C"/>
</g>
<mask id="mask17_8_9444" style="mask-type:luminance" maskUnits="userSpaceOnUse" x="94" y="38" width="26" height="10">
<path d="M119.151 47.6921C115.605 46.2125 111.306 45.3405 106.664 45.3405C102.02 45.3405 97.7214 46.2125 94.1763 47.6921C95.9454 42.4891 100.862 38.7408 106.664 38.7408C112.465 38.7408 117.381 42.4891 119.151 47.6921Z" fill="white"/>
</mask>
<g mask="url(#mask17_8_9444)">
<path d="M119.151 47.6921C115.605 46.2125 111.306 45.3405 106.664 45.3405C102.02 45.3405 97.7214 46.2125 94.1763 47.6921C95.9454 42.4891 100.862 38.7408 106.664 38.7408C112.465 38.7408 117.381 42.4891 119.151 47.6921Z" fill="#DC2F3C"/>
</g>
<mask id="mask18_8_9444" style="mask-type:luminance" maskUnits="userSpaceOnUse" x="92" y="14" width="10" height="8">
<path d="M100.651 21.4103C100.528 21.4103 100.403 21.3751 100.292 21.3024L92.3454 16.0653C92.0433 15.8666 91.9593 15.4612 92.158 15.1592C92.2852 14.9684 92.4942 14.8651 92.7065 14.8651C92.8303 14.8651 92.9552 14.9003 93.0642 14.973L101.012 20.21C101.314 20.4087 101.397 20.8141 101.198 21.1162C101.072 21.3069 100.864 21.4103 100.651 21.4103Z" fill="white"/>
</mask>
<g mask="url(#mask18_8_9444)">
<path d="M100.651 21.4103C100.528 21.4103 100.403 21.3751 100.292 21.3024L92.3454 16.0653C92.0433 15.8666 91.9593 15.4612 92.158 15.1592C92.2852 14.9684 92.4942 14.8651 92.7065 14.8651C92.8303 14.8651 92.9552 14.9003 93.0642 14.973L101.012 20.21C101.314 20.4087 101.397 20.8141 101.198 21.1162C101.072 21.3069 100.864 21.4103 100.651 21.4103Z" fill="#DC2F3C"/>
</g>
<mask id="mask19_8_9444" style="mask-type:luminance" maskUnits="userSpaceOnUse" x="112" y="14" width="10" height="8">
<path d="M112.675 21.4103C112.463 21.4103 112.254 21.3069 112.128 21.1162C111.929 20.8141 112.013 20.4087 112.315 20.21L120.263 14.973C120.373 14.9003 120.498 14.8651 120.622 14.8651C120.834 14.8651 121.043 14.9684 121.168 15.1592C121.366 15.4612 121.284 15.8666 120.981 16.0653L113.034 21.3024C112.924 21.3751 112.799 21.4103 112.675 21.4103Z" fill="white"/>
</mask>
<g mask="url(#mask19_8_9444)">
<path d="M112.675 21.4103C112.463 21.4103 112.254 21.3069 112.128 21.1162C111.929 20.8141 112.013 20.4087 112.315 20.21L120.263 14.973C120.373 14.9003 120.498 14.8651 120.622 14.8651C120.834 14.8651 121.043 14.9684 121.168 15.1592C121.366 15.4612 121.284 15.8666 120.981 16.0653L113.034 21.3024C112.924 21.3751 112.799 21.4103 112.675 21.4103Z" fill="#DC2F3C"/>
</g>
<circle cx="178.328" cy="30.6592" r="29.6593" stroke="#F0383D" stroke-width="2"/>
<mask id="mask20_8_9444" style="mask-type:luminance" maskUnits="userSpaceOnUse" x="161" y="20" width="10" height="10">
<path d="M165.744 29.6542C163.287 29.6542 161.295 27.6625 161.295 25.2052C161.295 22.748 163.287 20.7563 165.744 20.7563C168.201 20.7563 170.193 22.748 170.193 25.2052C170.193 27.6625 168.201 29.6542 165.744 29.6542Z" fill="white"/>
</mask>
<g mask="url(#mask20_8_9444)">
<path d="M165.744 29.6542C163.287 29.6542 161.295 27.6625 161.295 25.2052C161.295 22.748 163.287 20.7563 165.744 20.7563C168.201 20.7563 170.193 22.748 170.193 25.2052C170.193 27.6625 168.201 29.6542 165.744 29.6542Z" fill="#DC2F3C"/>
</g>
<mask id="mask21_8_9444" style="mask-type:luminance" maskUnits="userSpaceOnUse" x="186" y="20" width="10" height="10">
<path d="M190.66 29.6542C188.203 29.6542 186.211 27.6625 186.211 25.2052C186.211 22.748 188.203 20.7563 190.66 20.7563C193.117 20.7563 195.109 22.748 195.109 25.2052C195.109 27.6625 193.117 29.6542 190.66 29.6542Z" fill="white"/>
</mask>
<g mask="url(#mask21_8_9444)">
<path d="M190.66 29.6542C188.203 29.6542 186.211 27.6625 186.211 25.2052C186.211 22.748 188.203 20.7563 190.66 20.7563C193.117 20.7563 195.109 22.748 195.109 25.2052C195.109 27.6625 193.117 29.6542 190.66 29.6542Z" fill="#DC2F3C"/>
</g>
<mask id="mask22_8_9444" style="mask-type:luminance" maskUnits="userSpaceOnUse" x="165" y="38" width="26" height="10">
<path d="M190.689 47.6921C187.143 46.2125 182.844 45.3405 178.202 45.3405C173.559 45.3405 169.261 46.2125 165.714 47.6921C167.485 42.4891 172.4 38.7408 178.202 38.7408C184.003 38.7408 188.919 42.4891 190.689 47.6921Z" fill="white"/>
</mask>
<g mask="url(#mask22_8_9444)">
<path d="M190.689 47.6921C187.143 46.2125 182.844 45.3405 178.202 45.3405C173.559 45.3405 169.261 46.2125 165.714 47.6921C167.485 42.4891 172.4 38.7408 178.202 38.7408C184.003 38.7408 188.919 42.4891 190.689 47.6921Z" fill="#DC2F3C"/>
</g>
<mask id="mask23_8_9444" style="mask-type:luminance" maskUnits="userSpaceOnUse" x="163" y="14" width="10" height="8">
<path d="M172.189 21.4103C172.067 21.4103 171.942 21.3751 171.831 21.3024L163.884 16.0653C163.582 15.8666 163.499 15.4612 163.698 15.1592C163.824 14.9684 164.033 14.8651 164.246 14.8651C164.369 14.8651 164.494 14.9003 164.604 14.973L172.551 20.21C172.853 20.4087 172.935 20.8141 172.737 21.1162C172.611 21.3069 172.403 21.4103 172.189 21.4103Z" fill="white"/>
</mask>
<g mask="url(#mask23_8_9444)">
<path d="M172.189 21.4103C172.067 21.4103 171.942 21.3751 171.831 21.3024L163.884 16.0653C163.582 15.8666 163.499 15.4612 163.698 15.1592C163.824 14.9684 164.033 14.8651 164.246 14.8651C164.369 14.8651 164.494 14.9003 164.604 14.973L172.551 20.21C172.853 20.4087 172.935 20.8141 172.737 21.1162C172.611 21.3069 172.403 21.4103 172.189 21.4103Z" fill="#DC2F3C"/>
</g>
<mask id="mask24_8_9444" style="mask-type:luminance" maskUnits="userSpaceOnUse" x="183" y="14" width="10" height="8">
<path d="M184.213 21.4103C184.001 21.4103 183.792 21.3069 183.666 21.1162C183.468 20.8141 183.551 20.4087 183.853 20.21L191.801 14.973C191.912 14.9003 192.036 14.8651 192.16 14.8651C192.373 14.8651 192.581 14.9684 192.706 15.1592C192.905 15.4612 192.822 15.8666 192.52 16.0653L184.572 21.3024C184.462 21.3751 184.337 21.4103 184.213 21.4103Z" fill="white"/>
</mask>
<g mask="url(#mask24_8_9444)">
<path d="M184.213 21.4103C184.001 21.4103 183.792 21.3069 183.666 21.1162C183.468 20.8141 183.551 20.4087 183.853 20.21L191.801 14.973C191.912 14.9003 192.036 14.8651 192.16 14.8651C192.373 14.8651 192.581 14.9684 192.706 15.1592C192.905 15.4612 192.822 15.8666 192.52 16.0653L184.572 21.3024C184.462 21.3751 184.337 21.4103 184.213 21.4103Z" fill="#DC2F3C"/>
</g>
<circle cx="249.866" cy="30.6592" r="29.6593" stroke="#F0383D" stroke-width="2"/>
<mask id="mask25_8_9444" style="mask-type:luminance" maskUnits="userSpaceOnUse" x="232" y="20" width="10" height="10">
<path d="M237.282 29.6542C234.825 29.6542 232.833 27.6625 232.833 25.2052C232.833 22.748 234.825 20.7563 237.282 20.7563C239.739 20.7563 241.731 22.748 241.731 25.2052C241.731 27.6625 239.739 29.6542 237.282 29.6542Z" fill="white"/>
</mask>
<g mask="url(#mask25_8_9444)">
<path d="M237.282 29.6542C234.825 29.6542 232.833 27.6625 232.833 25.2052C232.833 22.748 234.825 20.7563 237.282 20.7563C239.739 20.7563 241.731 22.748 241.731 25.2052C241.731 27.6625 239.739 29.6542 237.282 29.6542Z" fill="#DC2F3C"/>
</g>
<mask id="mask26_8_9444" style="mask-type:luminance" maskUnits="userSpaceOnUse" x="257" y="20" width="10" height="10">
<path d="M262.198 29.6542C259.741 29.6542 257.749 27.6625 257.749 25.2052C257.749 22.748 259.741 20.7563 262.198 20.7563C264.655 20.7563 266.647 22.748 266.647 25.2052C266.647 27.6625 264.655 29.6542 262.198 29.6542Z" fill="white"/>
</mask>
<g mask="url(#mask26_8_9444)">
<path d="M262.198 29.6542C259.741 29.6542 257.749 27.6625 257.749 25.2052C257.749 22.748 259.741 20.7563 262.198 20.7563C264.655 20.7563 266.647 22.748 266.647 25.2052C266.647 27.6625 264.655 29.6542 262.198 29.6542Z" fill="#DC2F3C"/>
</g>
<mask id="mask27_8_9444" style="mask-type:luminance" maskUnits="userSpaceOnUse" x="237" y="38" width="26" height="10">
<path d="M262.227 47.6921C258.681 46.2125 254.383 45.3405 249.74 45.3405C245.098 45.3405 240.799 46.2125 237.252 47.6921C239.023 42.4891 243.938 38.7408 249.74 38.7408C255.541 38.7408 260.458 42.4891 262.227 47.6921Z" fill="white"/>
</mask>
<g mask="url(#mask27_8_9444)">
<path d="M262.227 47.6921C258.681 46.2125 254.383 45.3405 249.74 45.3405C245.098 45.3405 240.799 46.2125 237.252 47.6921C239.023 42.4891 243.938 38.7408 249.74 38.7408C255.541 38.7408 260.458 42.4891 262.227 47.6921Z" fill="#DC2F3C"/>
</g>
<mask id="mask28_8_9444" style="mask-type:luminance" maskUnits="userSpaceOnUse" x="235" y="14" width="10" height="8">
<path d="M243.728 21.4103C243.604 21.4103 243.479 21.3751 243.369 21.3024L235.422 16.0653C235.12 15.8666 235.037 15.4612 235.236 15.1592C235.362 14.9684 235.572 14.8651 235.784 14.8651C235.908 14.8651 236.032 14.9003 236.142 14.973L244.088 20.21C244.39 20.4087 244.473 20.8141 244.274 21.1162C244.148 21.3069 243.94 21.4103 243.728 21.4103Z" fill="white"/>
</mask>
<g mask="url(#mask28_8_9444)">
<path d="M243.728 21.4103C243.604 21.4103 243.479 21.3751 243.369 21.3024L235.422 16.0653C235.12 15.8666 235.037 15.4612 235.236 15.1592C235.362 14.9684 235.572 14.8651 235.784 14.8651C235.908 14.8651 236.032 14.9003 236.142 14.973L244.088 20.21C244.39 20.4087 244.473 20.8141 244.274 21.1162C244.148 21.3069 243.94 21.4103 243.728 21.4103Z" fill="#DC2F3C"/>
</g>
<mask id="mask29_8_9444" style="mask-type:luminance" maskUnits="userSpaceOnUse" x="255" y="14" width="10" height="8">
<path d="M255.751 21.4103C255.539 21.4103 255.331 21.3069 255.205 21.1162C255.007 20.8141 255.089 20.4087 255.391 20.21L263.339 14.973C263.45 14.9003 263.575 14.8651 263.698 14.8651C263.911 14.8651 264.119 14.9684 264.245 15.1592C264.444 15.4612 264.361 15.8666 264.059 16.0653L256.111 21.3024C256 21.3751 255.875 21.4103 255.751 21.4103Z" fill="white"/>
</mask>
<g mask="url(#mask29_8_9444)">
<path d="M255.751 21.4103C255.539 21.4103 255.331 21.3069 255.205 21.1162C255.007 20.8141 255.089 20.4087 255.391 20.21L263.339 14.973C263.45 14.9003 263.575 14.8651 263.698 14.8651C263.911 14.8651 264.119 14.9684 264.245 15.1592C264.444 15.4612 264.361 15.8666 264.059 16.0653L256.111 21.3024C256 21.3751 255.875 21.4103 255.751 21.4103Z" fill="#DC2F3C"/>
</g>
<circle cx="321.404" cy="30.6592" r="29.6593" stroke="#F0383D" stroke-width="2"/>
<mask id="mask30_8_9444" style="mask-type:luminance" maskUnits="userSpaceOnUse" x="305" y="21" width="10" height="10">
<path d="M309.672 30.6547C307.216 30.6547 305.223 28.663 305.223 26.2057C305.223 23.7484 307.216 21.7567 309.672 21.7567C312.131 21.7567 314.122 23.7484 314.122 26.2057C314.122 28.663 312.131 30.6547 309.672 30.6547Z" fill="white"/>
</mask>
<g mask="url(#mask30_8_9444)">
<path d="M309.672 30.6547C307.216 30.6547 305.223 28.663 305.223 26.2057C305.223 23.7484 307.216 21.7567 309.672 21.7567C312.131 21.7567 314.122 23.7484 314.122 26.2057C314.122 28.663 312.131 30.6547 309.672 30.6547Z" fill="#DC2F3C"/>
</g>
<mask id="mask31_8_9444" style="mask-type:luminance" maskUnits="userSpaceOnUse" x="328" y="20" width="10" height="10">
<path d="M333.433 29.6542C330.976 29.6542 328.984 27.6625 328.984 25.2052C328.984 22.748 330.976 20.7563 333.433 20.7563C335.89 20.7563 337.882 22.748 337.882 25.2052C337.882 27.6625 335.89 29.6542 333.433 29.6542Z" fill="white"/>
</mask>
<g mask="url(#mask31_8_9444)">
<path d="M333.433 29.6542C330.976 29.6542 328.984 27.6625 328.984 25.2052C328.984 22.748 330.976 20.7563 333.433 20.7563C335.89 20.7563 337.882 22.748 337.882 25.2052C337.882 27.6625 335.89 29.6542 333.433 29.6542Z" fill="#DC2F3C"/>
</g>
<mask id="mask32_8_9444" style="mask-type:luminance" maskUnits="userSpaceOnUse" x="308" y="38" width="26" height="10">
<path d="M333.464 47.6921C329.917 46.2125 325.618 45.3405 320.975 45.3405C316.333 45.3405 312.034 46.2125 308.488 47.6921C310.258 42.4891 315.174 38.7408 320.975 38.7408C326.778 38.7408 331.693 42.4891 333.464 47.6921Z" fill="white"/>
</mask>
<g mask="url(#mask32_8_9444)">
<path d="M333.464 47.6921C329.917 46.2125 325.618 45.3405 320.975 45.3405C316.333 45.3405 312.034 46.2125 308.488 47.6921C310.258 42.4891 315.174 38.7408 320.975 38.7408C326.778 38.7408 331.693 42.4891 333.464 47.6921Z" fill="#DC2F3C"/>
</g>
<mask id="mask33_8_9444" style="mask-type:luminance" maskUnits="userSpaceOnUse" x="305" y="14" width="10" height="8">
<path d="M313.824 21.4103C313.7 21.4103 313.575 21.3751 313.465 21.3024L305.517 16.0653C305.215 15.8666 305.133 15.4612 305.331 15.1592C305.457 14.9684 305.667 14.8651 305.88 14.8651C306.003 14.8651 306.127 14.9003 306.237 14.973L314.184 20.21C314.486 20.4087 314.57 20.8141 314.371 21.1162C314.245 21.3069 314.036 21.4103 313.824 21.4103Z" fill="white"/>
</mask>
<g mask="url(#mask33_8_9444)">
<path d="M313.824 21.4103C313.7 21.4103 313.575 21.3751 313.465 21.3024L305.517 16.0653C305.215 15.8666 305.133 15.4612 305.331 15.1592C305.457 14.9684 305.667 14.8651 305.88 14.8651C306.003 14.8651 306.127 14.9003 306.237 14.973L314.184 20.21C314.486 20.4087 314.57 20.8141 314.371 21.1162C314.245 21.3069 314.036 21.4103 313.824 21.4103Z" fill="#DC2F3C"/>
</g>
<mask id="mask34_8_9444" style="mask-type:luminance" maskUnits="userSpaceOnUse" x="326" y="14" width="10" height="8">
<path d="M326.988 21.4103C326.774 21.4103 326.567 21.3069 326.441 21.1162C326.242 20.8141 326.325 20.4087 326.627 20.21L334.574 14.973C334.686 14.9003 334.811 14.8651 334.934 14.8651C335.147 14.8651 335.356 14.9684 335.481 15.1592C335.679 15.4612 335.596 15.8666 335.294 16.0653L327.347 21.3024C327.235 21.3751 327.111 21.4103 326.988 21.4103Z" fill="white"/>
</mask>
<g mask="url(#mask34_8_9444)">
<path d="M326.988 21.4103C326.774 21.4103 326.567 21.3069 326.441 21.1162C326.242 20.8141 326.325 20.4087 326.627 20.21L334.574 14.973C334.686 14.9003 334.811 14.8651 334.934 14.8651C335.147 14.8651 335.356 14.9684 335.481 15.1592C335.679 15.4612 335.596 15.8666 335.294 16.0653L327.347 21.3024C327.235 21.3751 327.111 21.4103 326.988 21.4103Z" fill="#DC2F3C"/>
</g>
<circle cx="392.942" cy="30.6592" r="29.6593" stroke="#F0383D" stroke-width="2"/>
<mask id="mask35_8_9444" style="mask-type:luminance" maskUnits="userSpaceOnUse" x="375" y="20" width="10" height="10">
<path d="M380.358 29.6542C377.901 29.6542 375.909 27.6625 375.909 25.2052C375.909 22.748 377.901 20.7563 380.358 20.7563C382.815 20.7563 384.807 22.748 384.807 25.2052C384.807 27.6625 382.815 29.6542 380.358 29.6542Z" fill="white"/>
</mask>
<g mask="url(#mask35_8_9444)">
<path d="M380.358 29.6542C377.901 29.6542 375.909 27.6625 375.909 25.2052C375.909 22.748 377.901 20.7563 380.358 20.7563C382.815 20.7563 384.807 22.748 384.807 25.2052C384.807 27.6625 382.815 29.6542 380.358 29.6542Z" fill="#DC2F3C"/>
</g>
<mask id="mask36_8_9444" style="mask-type:luminance" maskUnits="userSpaceOnUse" x="400" y="20" width="10" height="10">
<path d="M405.273 29.6542C402.817 29.6542 400.824 27.6625 400.824 25.2052C400.824 22.748 402.817 20.7563 405.273 20.7563C407.73 20.7563 409.723 22.748 409.723 25.2052C409.723 27.6625 407.73 29.6542 405.273 29.6542Z" fill="white"/>
</mask>
<g mask="url(#mask36_8_9444)">
<path d="M405.273 29.6542C402.817 29.6542 400.824 27.6625 400.824 25.2052C400.824 22.748 402.817 20.7563 405.273 20.7563C407.73 20.7563 409.723 22.748 409.723 25.2052C409.723 27.6625 407.73 29.6542 405.273 29.6542Z" fill="#DC2F3C"/>
</g>
<mask id="mask37_8_9444" style="mask-type:luminance" maskUnits="userSpaceOnUse" x="380" y="38" width="26" height="10">
<path d="M405.304 47.6921C401.757 46.2125 397.458 45.3405 392.816 45.3405C388.173 45.3405 383.874 46.2125 380.328 47.6921C382.098 42.4891 387.015 38.7408 392.816 38.7408C398.618 38.7408 403.533 42.4891 405.304 47.6921Z" fill="white"/>
</mask>
<g mask="url(#mask37_8_9444)">
<path d="M405.304 47.6921C401.757 46.2125 397.458 45.3405 392.816 45.3405C388.173 45.3405 383.874 46.2125 380.328 47.6921C382.098 42.4891 387.015 38.7408 392.816 38.7408C398.618 38.7408 403.533 42.4891 405.304 47.6921Z" fill="#DC2F3C"/>
</g>
<mask id="mask38_8_9444" style="mask-type:luminance" maskUnits="userSpaceOnUse" x="378" y="14" width="10" height="8">
<path d="M386.803 21.4103C386.681 21.4103 386.555 21.3751 386.444 21.3024L378.498 16.0653C378.195 15.8666 378.112 15.4612 378.311 15.1592C378.438 14.9684 378.647 14.8651 378.859 14.8651C378.983 14.8651 379.107 14.9003 379.217 14.973L387.164 20.21C387.466 20.4087 387.549 20.8141 387.351 21.1162C387.225 21.3069 387.017 21.4103 386.803 21.4103Z" fill="white"/>
</mask>
<g mask="url(#mask38_8_9444)">
<path d="M386.803 21.4103C386.681 21.4103 386.555 21.3751 386.444 21.3024L378.498 16.0653C378.195 15.8666 378.112 15.4612 378.311 15.1592C378.438 14.9684 378.647 14.8651 378.859 14.8651C378.983 14.8651 379.107 14.9003 379.217 14.973L387.164 20.21C387.466 20.4087 387.549 20.8141 387.351 21.1162C387.225 21.3069 387.017 21.4103 386.803 21.4103Z" fill="#DC2F3C"/>
</g>
<mask id="mask39_8_9444" style="mask-type:luminance" maskUnits="userSpaceOnUse" x="398" y="14" width="10" height="8">
<path d="M398.828 21.4103C398.614 21.4103 398.406 21.3069 398.28 21.1162C398.082 20.8141 398.165 20.4087 398.468 20.21L406.414 14.973C406.525 14.9003 406.65 14.8651 406.774 14.8651C406.987 14.8651 407.195 14.9684 407.32 15.1592C407.519 15.4612 407.436 15.8666 407.134 16.0653L399.187 21.3024C399.076 21.3751 398.95 21.4103 398.828 21.4103Z" fill="white"/>
</mask>
<g mask="url(#mask39_8_9444)">
<path d="M398.828 21.4103C398.614 21.4103 398.406 21.3069 398.28 21.1162C398.082 20.8141 398.165 20.4087 398.468 20.21L406.414 14.973C406.525 14.9003 406.65 14.8651 406.774 14.8651C406.987 14.8651 407.195 14.9684 407.32 15.1592C407.519 15.4612 407.436 15.8666 407.134 16.0653L399.187 21.3024C399.076 21.3751 398.95 21.4103 398.828 21.4103Z" fill="#DC2F3C"/>
</g>
<circle cx="464.481" cy="30.6592" r="29.6593" stroke="#F6811F" stroke-width="2"/>
<mask id="mask40_8_9444" style="mask-type:luminance" maskUnits="userSpaceOnUse" x="447" y="20" width="10" height="10">
<path d="M451.897 29.6475C449.439 29.6475 447.448 27.6558 447.448 25.1985C447.448 22.7412 449.439 20.7495 451.897 20.7495C454.354 20.7495 456.346 22.7412 456.346 25.1985C456.346 27.6558 454.354 29.6475 451.897 29.6475Z" fill="white"/>
</mask>
<g mask="url(#mask40_8_9444)">
<path d="M451.897 29.6475C449.439 29.6475 447.448 27.6558 447.448 25.1985C447.448 22.7412 449.439 20.7495 451.897 20.7495C454.354 20.7495 456.346 22.7412 456.346 25.1985C456.346 27.6558 454.354 29.6475 451.897 29.6475Z" fill="#F57520"/>
</g>
<mask id="mask41_8_9444" style="mask-type:luminance" maskUnits="userSpaceOnUse" x="472" y="20" width="10" height="10">
<path d="M476.812 29.6475C474.355 29.6475 472.363 27.6558 472.363 25.1985C472.363 22.7412 474.355 20.7495 476.812 20.7495C479.27 20.7495 481.261 22.7412 481.261 25.1985C481.261 27.6558 479.27 29.6475 476.812 29.6475Z" fill="white"/>
</mask>
<g mask="url(#mask41_8_9444)">
<path d="M476.812 29.6475C474.355 29.6475 472.363 27.6558 472.363 25.1985C472.363 22.7412 474.355 20.7495 476.812 20.7495C479.27 20.7495 481.261 22.7412 481.261 25.1985C481.261 27.6558 479.27 29.6475 476.812 29.6475Z" fill="#F57520"/>
</g>
<mask id="mask42_8_9444" style="mask-type:luminance" maskUnits="userSpaceOnUse" x="447" y="15" width="10" height="4">
<path d="M448.108 18.5272C447.941 18.5272 447.773 18.4636 447.646 18.3353C447.391 18.0798 447.391 17.6665 447.646 17.411C448.817 16.2391 450.357 15.652 451.895 15.652C453.435 15.652 454.975 16.2391 456.147 17.411C456.402 17.6665 456.402 18.0798 456.147 18.3353C456.018 18.4636 455.852 18.5272 455.684 18.5272C455.517 18.5272 455.35 18.4636 455.221 18.3353C454.305 17.4189 453.1 16.9602 451.895 16.9602C450.692 16.9602 449.488 17.4178 448.571 18.3353C448.443 18.4636 448.276 18.5272 448.108 18.5272Z" fill="white"/>
</mask>
<g mask="url(#mask42_8_9444)">
<path d="M448.108 18.5272C447.941 18.5272 447.773 18.4636 447.646 18.3353C447.391 18.0798 447.391 17.6665 447.646 17.411C448.817 16.2391 450.357 15.652 451.895 15.652C453.435 15.652 454.975 16.2391 456.147 17.411C456.402 17.6665 456.402 18.0798 456.147 18.3353C456.018 18.4636 455.852 18.5272 455.684 18.5272C455.517 18.5272 455.35 18.4636 455.221 18.3353C454.305 17.4189 453.1 16.9602 451.895 16.9602C450.692 16.9602 449.488 17.4178 448.571 18.3353C448.443 18.4636 448.276 18.5272 448.108 18.5272Z" fill="#F57520"/>
</g>
<mask id="mask43_8_9444" style="mask-type:luminance" maskUnits="userSpaceOnUse" x="472" y="15" width="10" height="4">
<path d="M473.024 18.5272C472.857 18.5272 472.689 18.4636 472.562 18.3353C472.307 18.0798 472.307 17.6665 472.562 17.411C473.734 16.2391 475.274 15.6532 476.813 15.6532C478.352 15.6532 479.891 16.2391 481.063 17.411C481.318 17.6665 481.318 18.0798 481.063 18.3353C480.935 18.4636 480.768 18.5272 480.6 18.5272C480.433 18.5272 480.266 18.4636 480.137 18.3353C479.221 17.4189 478.016 16.9602 476.813 16.9602C475.608 16.9602 474.404 17.4189 473.487 18.3353C473.359 18.4636 473.191 18.5272 473.024 18.5272Z" fill="white"/>
</mask>
<g mask="url(#mask43_8_9444)">
<path d="M473.024 18.5272C472.857 18.5272 472.689 18.4636 472.562 18.3353C472.307 18.0798 472.307 17.6665 472.562 17.411C473.734 16.2391 475.274 15.6532 476.813 15.6532C478.352 15.6532 479.891 16.2391 481.063 17.411C481.318 17.6665 481.318 18.0798 481.063 18.3353C480.935 18.4636 480.768 18.5272 480.6 18.5272C480.433 18.5272 480.266 18.4636 480.137 18.3353C479.221 17.4189 478.016 16.9602 476.813 16.9602C475.608 16.9602 474.404 17.4189 473.487 18.3353C473.359 18.4636 473.191 18.5272 473.024 18.5272Z" fill="#F57520"/>
</g>
<mask id="mask44_8_9444" style="mask-type:luminance" maskUnits="userSpaceOnUse" x="455" y="44" width="19" height="2">
<path d="M473.025 45.9888H455.684C455.323 45.9888 455.03 45.6959 455.03 45.3348C455.03 44.9725 455.323 44.6796 455.684 44.6796H473.025C473.386 44.6796 473.679 44.9725 473.679 45.3348C473.679 45.6959 473.386 45.9888 473.025 45.9888Z" fill="white"/>
</mask>
<g mask="url(#mask44_8_9444)">
<path d="M473.025 45.9888H455.684C455.323 45.9888 455.03 45.6959 455.03 45.3348C455.03 44.9725 455.323 44.6796 455.684 44.6796H473.025C473.386 44.6796 473.679 44.9725 473.679 45.3348C473.679 45.6959 473.386 45.9888 473.025 45.9888Z" fill="#F57520"/>
</g>
<circle cx="536.019" cy="30.6592" r="29.6593" stroke="#F6811F" stroke-width="2"/>
<mask id="mask45_8_9444" style="mask-type:luminance" maskUnits="userSpaceOnUse" x="518" y="20" width="10" height="10">
<path d="M523.435 29.6475C520.978 29.6475 518.986 27.6558 518.986 25.1985C518.986 22.7412 520.978 20.7495 523.435 20.7495C525.893 20.7495 527.884 22.7412 527.884 25.1985C527.884 27.6558 525.893 29.6475 523.435 29.6475Z" fill="white"/>
</mask>
<g mask="url(#mask45_8_9444)">
<path d="M523.435 29.6475C520.978 29.6475 518.986 27.6558 518.986 25.1985C518.986 22.7412 520.978 20.7495 523.435 20.7495C525.893 20.7495 527.884 22.7412 527.884 25.1985C527.884 27.6558 525.893 29.6475 523.435 29.6475Z" fill="#F57520"/>
</g>
<mask id="mask46_8_9444" style="mask-type:luminance" maskUnits="userSpaceOnUse" x="543" y="20" width="10" height="10">
<path d="M548.351 29.6475C545.894 29.6475 543.902 27.6558 543.902 25.1985C543.902 22.7412 545.894 20.7495 548.351 20.7495C550.809 20.7495 552.8 22.7412 552.8 25.1985C552.8 27.6558 550.809 29.6475 548.351 29.6475Z" fill="white"/>
</mask>
<g mask="url(#mask46_8_9444)">
<path d="M548.351 29.6475C545.894 29.6475 543.902 27.6558 543.902 25.1985C543.902 22.7412 545.894 20.7495 548.351 20.7495C550.809 20.7495 552.8 22.7412 552.8 25.1985C552.8 27.6558 550.809 29.6475 548.351 29.6475Z" fill="#F57520"/>
</g>
<mask id="mask47_8_9444" style="mask-type:luminance" maskUnits="userSpaceOnUse" x="518" y="15" width="10" height="4">
<path d="M519.647 18.5272C519.48 18.5272 519.312 18.4636 519.185 18.3353C518.93 18.0798 518.93 17.6665 519.185 17.411C520.357 16.2391 521.896 15.652 523.436 15.652C524.974 15.652 526.514 16.2391 527.686 17.411C527.941 17.6665 527.941 18.0798 527.686 18.3353C527.559 18.4636 527.391 18.5272 527.224 18.5272C527.056 18.5272 526.889 18.4636 526.76 18.3353C525.844 17.4189 524.639 16.9602 523.436 16.9602C522.231 16.9602 521.027 17.4178 520.111 18.3353C519.982 18.4636 519.815 18.5272 519.647 18.5272Z" fill="white"/>
</mask>
<g mask="url(#mask47_8_9444)">
<path d="M519.647 18.5272C519.48 18.5272 519.312 18.4636 519.185 18.3353C518.93 18.0798 518.93 17.6665 519.185 17.411C520.357 16.2391 521.896 15.652 523.436 15.652C524.974 15.652 526.514 16.2391 527.686 17.411C527.941 17.6665 527.941 18.0798 527.686 18.3353C527.559 18.4636 527.391 18.5272 527.224 18.5272C527.056 18.5272 526.889 18.4636 526.76 18.3353C525.844 17.4189 524.639 16.9602 523.436 16.9602C522.231 16.9602 521.027 17.4178 520.111 18.3353C519.982 18.4636 519.815 18.5272 519.647 18.5272Z" fill="#F57520"/>
</g>
<mask id="mask48_8_9444" style="mask-type:luminance" maskUnits="userSpaceOnUse" x="543" y="15" width="10" height="4">
<path d="M544.563 18.5272C544.397 18.5272 544.228 18.4636 544.101 18.3353C543.846 18.0798 543.846 17.6665 544.101 17.411C545.273 16.2391 546.813 15.6532 548.352 15.6532C549.891 15.6532 551.43 16.2391 552.602 17.411C552.857 17.6665 552.857 18.0798 552.602 18.3353C552.474 18.4636 552.307 18.5272 552.14 18.5272C551.972 18.5272 551.805 18.4636 551.676 18.3353C550.76 17.4189 549.555 16.9602 548.352 16.9602C547.147 16.9602 545.943 17.4189 545.027 18.3353C544.898 18.4636 544.731 18.5272 544.563 18.5272Z" fill="white"/>
</mask>
<g mask="url(#mask48_8_9444)">
<path d="M544.563 18.5272C544.397 18.5272 544.228 18.4636 544.101 18.3353C543.846 18.0798 543.846 17.6665 544.101 17.411C545.273 16.2391 546.813 15.6532 548.352 15.6532C549.891 15.6532 551.43 16.2391 552.602 17.411C552.857 17.6665 552.857 18.0798 552.602 18.3353C552.474 18.4636 552.307 18.5272 552.14 18.5272C551.972 18.5272 551.805 18.4636 551.676 18.3353C550.76 17.4189 549.555 16.9602 548.352 16.9602C547.147 16.9602 545.943 17.4189 545.027 18.3353C544.898 18.4636 544.731 18.5272 544.563 18.5272Z" fill="#F57520"/>
</g>
<mask id="mask49_8_9444" style="mask-type:luminance" maskUnits="userSpaceOnUse" x="526" y="44" width="20" height="2">
<path d="M544.563 45.9888H527.224C526.862 45.9888 526.57 45.6959 526.57 45.3348C526.57 44.9725 526.862 44.6796 527.224 44.6796H544.563C544.926 44.6796 545.217 44.9725 545.217 45.3348C545.217 45.6959 544.926 45.9888 544.563 45.9888Z" fill="white"/>
</mask>
<g mask="url(#mask49_8_9444)">
<path d="M544.563 45.9888H527.224C526.862 45.9888 526.57 45.6959 526.57 45.3348C526.57 44.9725 526.862 44.6796 527.224 44.6796H544.563C544.926 44.6796 545.217 44.9725 545.217 45.3348C545.217 45.6959 544.926 45.9888 544.563 45.9888Z" fill="#F57520"/>
</g>
<mask id="mask50_8_9444" style="mask-type:luminance" maskUnits="userSpaceOnUse" x="0" y="81" width="426" height="40">
<path d="M425.281 120.082H19.4955C8.91252 120.082 0.333496 111.503 0.333496 100.92C0.333496 90.3369 8.91252 81.758 19.4955 81.758H425.281V120.082Z" fill="white"/>
</mask>
<g mask="url(#mask50_8_9444)">
<path d="M425.281 120.082H19.4955C8.91252 120.082 0.333496 111.503 0.333496 100.92C0.333496 90.3369 8.91252 81.758 19.4955 81.758H425.281V120.082Z" fill="#F0383D"/>
</g>
<mask id="mask51_8_9444" style="mask-type:luminance" maskUnits="userSpaceOnUse" x="581" y="81" width="135" height="40">
<path d="M696.838 120.082H581.928V81.758H696.838C707.421 81.758 716 90.3369 716 100.92C716 111.503 707.421 120.082 696.838 120.082Z" fill="white"/>
</mask>
<g mask="url(#mask51_8_9444)">
<path d="M696.838 120.082H581.928V81.758H696.838C707.421 81.758 716 90.3369 716 100.92C716 111.503 707.421 120.082 696.838 120.082Z" fill="#3B9640"/>
</g>
<mask id="mask52_8_9444" style="mask-type:luminance" maskUnits="userSpaceOnUse" x="436" y="81" width="135" height="40">
<path d="M570.641 120.082H436.411V81.758H570.641V120.082Z" fill="white"/>
</mask>
<g mask="url(#mask52_8_9444)">
<path d="M570.641 120.082H436.411V81.758H570.641V120.082Z" fill="#F6811F"/>
</g>
</svg>
