<svg width="218" height="218" viewBox="0 0 218 218" fill="none" xmlns="http://www.w3.org/2000/svg">
<path d="M109 22.3333C61.1167 22.3333 22.3333 61.1167 22.3333 109C22.3333 156.883 61.1167 195.667 109 195.667C156.883 195.667 195.667 156.883 195.667 109C195.667 61.1167 156.883 22.3333 109 22.3333ZM146.917 65.6667C155.908 65.6667 163.167 72.925 163.167 81.9167C163.167 90.9083 155.908 98.1667 146.917 98.1667C137.925 98.1667 130.667 90.9083 130.667 81.9167C130.667 72.925 137.925 65.6667 146.917 65.6667ZM71.0833 65.6667C80.075 65.6667 87.3333 72.925 87.3333 81.9167C87.3333 90.9083 80.075 98.1667 71.0833 98.1667C62.0917 98.1667 54.8333 90.9083 54.8333 81.9167C54.8333 72.925 62.0917 65.6667 71.0833 65.6667ZM109 168.583C83.7583 168.583 62.3083 152.767 53.6417 130.667H164.358C155.692 152.767 134.242 168.583 109 168.583Z" fill="#F9FCF7"/>
<path d="M146.917 98.1667C155.891 98.1667 163.167 90.8913 163.167 81.9167C163.167 72.9421 155.891 65.6667 146.917 65.6667C137.942 65.6667 130.667 72.9421 130.667 81.9167C130.667 90.8913 137.942 98.1667 146.917 98.1667Z" fill="#016A37"/>
<path d="M108.892 0.666656C49.0917 0.666656 0.666672 49.2 0.666672 109C0.666672 168.8 49.0917 217.333 108.892 217.333C168.8 217.333 217.333 168.8 217.333 109C217.333 49.2 168.8 0.666656 108.892 0.666656ZM109 195.667C61.1167 195.667 22.3333 156.883 22.3333 109C22.3333 61.1167 61.1167 22.3333 109 22.3333C156.883 22.3333 195.667 61.1167 195.667 109C195.667 156.883 156.883 195.667 109 195.667Z" fill="#016A37"/>
<path d="M71.0833 98.1667C80.058 98.1667 87.3333 90.8913 87.3333 81.9167C87.3333 72.9421 80.058 65.6667 71.0833 65.6667C62.1087 65.6667 54.8333 72.9421 54.8333 81.9167C54.8333 90.8913 62.1087 98.1667 71.0833 98.1667Z" fill="#016A37"/>
<path d="M109 168.583C134.242 168.583 155.692 152.767 164.358 130.667H53.6417C62.3083 152.767 83.7583 168.583 109 168.583Z" fill="#016A37"/>
</svg>
