<svg width="290" height="300" viewBox="0 0 290 300" fill="none" xmlns="http://www.w3.org/2000/svg">
<path d="M271.914 189.834C263.08 213.494 245.031 239.101 219.633 246.683C181.256 258.142 176.671 289.076 107.935 286.207C97.2176 285.76 87.3122 284.254 78.212 281.848C73.3202 280.556 68.66 278.996 64.2374 277.2C24.0824 260.935 3.13521 225.139 1.39641 187.684C-0.899189 138.422 33.4724 114.942 55.8104 101.194C78.149 87.4452 105.072 34.173 172.666 36.4626C182.972 36.816 193.254 38.2248 203.218 40.9254C225.962 47.0808 249.082 60.696 262.518 80.5998C263.527 82.095 264.489 83.6256 265.41 85.1844C283.39 115.69 283.958 157.579 271.914 189.834Z" fill="#92E3A9"/>
<path opacity="0.7" d="M271.914 189.834C263.08 213.494 245.031 239.101 219.633 246.683C181.256 258.142 176.671 289.076 107.935 286.207C97.2176 285.76 87.3122 284.254 78.212 281.848C73.3202 280.556 68.66 278.996 64.2374 277.2C24.0824 260.935 3.13521 225.139 1.39641 187.684C-0.899189 138.422 33.4724 114.942 55.8104 101.194C78.149 87.4452 105.072 34.173 172.666 36.4626C182.972 36.816 193.254 38.2248 203.218 40.9254C225.962 47.0808 249.082 60.696 262.518 80.5998C263.527 82.095 264.489 83.6256 265.41 85.1844C283.39 115.69 283.958 157.579 271.914 189.834Z" fill="white"/>
<path opacity="0.2" d="M260 205.973H234.8V216.173H260V205.973Z" fill="black"/>
<path opacity="0.2" d="M257.6 115.074H232.4V125.274H257.6V115.074Z" fill="black"/>
<path opacity="0.2" d="M166.4 151.074H141.2V161.274H166.4V151.074Z" fill="black"/>
<path opacity="0.2" d="M178.4 91.5H153.2V101.7H178.4V91.5Z" fill="black"/>
<path opacity="0.2" d="M230.6 80.1H205.4V90.3H230.6V80.1Z" fill="black"/>
<path opacity="0.2" d="M51.8 202.5H26.6V212.7H51.8V202.5Z" fill="black"/>
<path opacity="0.2" d="M110 239.1H84.8V249.3H110V239.1Z" fill="black"/>
<path opacity="0.1" d="M243.8 129.174H218.6V139.374H243.8V129.174Z" fill="black"/>
<path opacity="0.1" d="M217.4 185.873H192.2V196.073H217.4V185.873Z" fill="black"/>
<path opacity="0.1" d="M36.8 186.473H11.6V196.673H36.8V186.473Z" fill="black"/>
<path opacity="0.1" d="M162.8 202.073H137.6V212.273H162.8V202.073Z" fill="black"/>
<path opacity="0.1" d="M165.2 187.673H140V197.873H165.2V187.673Z" fill="black"/>
<path opacity="0.1" d="M272.6 129.174H247.4V139.374H272.6V129.174Z" fill="black"/>
<path opacity="0.2" d="M197.6 238.073H172.4V248.273H197.6V238.073Z" fill="black"/>
<path opacity="0.1" d="M183.8 252.173H158.6V262.373H183.8V252.173Z" fill="black"/>
<path opacity="0.1" d="M212.6 252.173H187.4V262.373H212.6V252.173Z" fill="black"/>
<path opacity="0.2" d="M75.4352 111.12H50.2352V121.32H75.4352V111.12Z" fill="black"/>
<path opacity="0.1" d="M61.6352 125.22H36.4352V135.42H61.6352V125.22Z" fill="black"/>
<path opacity="0.1" d="M90.4352 125.22H65.2352V135.42H90.4352V125.22Z" fill="black"/>
<path opacity="0.2" d="M65.6 187.073H40.4V197.273H65.6V187.073Z" fill="black"/>
<path opacity="0.1" d="M177.2 138.3H152V148.5H177.2V138.3Z" fill="black"/>
<path opacity="0.1" d="M139.4 238.5H114.2V248.7H139.4V238.5Z" fill="black"/>
<path opacity="0.1" d="M217.4 67.5H192.2V77.7H217.4V67.5Z" fill="black"/>
<path opacity="0.2" d="M51.2 153.3H26V163.5H51.2V153.3Z" fill="black"/>
<path opacity="0.1" d="M65.6 140.7H40.4V150.9H65.6V140.7Z" fill="black"/>
<path opacity="0.1" d="M129.8 88.374H104.6V98.574H129.8V88.374Z" fill="black"/>
<path opacity="0.2" d="M217.4 151.374H192.2V161.574H217.4V151.374Z" fill="black"/>
<path opacity="0.2" d="M199.035 205.92H173.835V216.12H199.035V205.92Z" fill="black"/>
<path opacity="0.1" d="M74.6 69.9H49.4V80.1H74.6V69.9Z" fill="black"/>
<path opacity="0.1" d="M103.4 69.9H78.2V80.1H103.4V69.9Z" fill="black"/>
<path opacity="0.1" d="M214.4 219.3H189.2V229.5H214.4V219.3Z" fill="black"/>
<path opacity="0.1" d="M35 101.7H9.79999V111.9H35V101.7Z" fill="black"/>
<path opacity="0.2" d="M230.235 206.22H205.035V216.42H230.235V206.22Z" fill="black"/>
<path opacity="0.1" d="M211.4 88.374H186.2V98.574H211.4V88.374Z" fill="black"/>
<path opacity="0.1" d="M156.2 69.9H131V80.1H156.2V69.9Z" fill="black"/>
<path opacity="0.1" d="M185 69.9H159.8V80.1H185V69.9Z" fill="black"/>
<path d="M30.3104 97.2552C32.5382 95.0598 36.5624 95.5308 36.5624 95.5308C36.5624 95.5308 36.9752 99.5616 34.748 101.758C32.5208 103.954 28.496 103.482 28.496 103.482C28.496 103.482 28.0826 99.4512 30.3104 97.2552Z" fill="#263238" stroke="#263238" stroke-miterlimit="10"/>
<path d="M33.14 90.0222C35.876 91.5378 36.5624 95.5314 36.5624 95.5314C36.5624 95.5314 32.813 97.068 30.077 95.5524C27.341 94.0368 26.6546 90.0432 26.6546 90.0432C26.6546 90.0432 30.404 88.5066 33.14 90.0222Z" fill="#263238" stroke="#263238" stroke-miterlimit="10"/>
<path d="M40.9802 21.4512V101.176" stroke="#263238" stroke-miterlimit="10"/>
<path d="M42.0068 92.0064C40.5428 94.77 36.563 95.5314 36.563 95.5314C36.563 95.5314 34.9568 91.8114 36.4208 89.0472C37.8848 86.2836 41.8646 85.5222 41.8646 85.5222C41.8646 85.5222 43.4708 89.2422 42.0068 92.0064Z" fill="#263238" stroke="#263238" stroke-miterlimit="10"/>
<path d="M38.3048 101.779C36.1028 99.5574 36.563 95.5314 36.563 95.5314C36.563 95.5314 40.5926 95.1072 42.7946 97.3284C44.9966 99.5496 44.5364 103.576 44.5364 103.576C44.5364 103.576 40.5062 104 38.3048 101.779Z" fill="#263238" stroke="#263238" stroke-miterlimit="10"/>
<path d="M43.832 98.1858C46.7906 97.1718 50.2142 99.3402 50.2142 99.3402C50.2142 99.3402 48.8402 103.153 45.8816 104.167C42.923 105.181 39.4994 103.012 39.4994 103.012C39.4994 103.012 40.8734 99.1998 43.832 98.1858Z" fill="#263238" stroke="#263238" stroke-miterlimit="10"/>
<path d="M49.5158 92.892C51.3254 95.4432 50.2142 99.3396 50.2142 99.3396C50.2142 99.3396 46.169 99.1002 44.3594 96.5496C42.5498 93.9984 43.661 90.1014 43.661 90.1014C43.661 90.1014 47.7062 90.3408 49.5158 92.892Z" fill="#263238" stroke="#263238" stroke-miterlimit="10"/>
<path d="M56.648 98.5212C54.131 100.378 50.2142 99.3402 50.2142 99.3402C50.2142 99.3402 50.378 95.2914 52.8944 93.4344C55.4114 91.5774 59.3282 92.6154 59.3282 92.6154C59.3282 92.6154 59.165 96.6642 56.648 98.5212Z" fill="#263238" stroke="#263238" stroke-miterlimit="10"/>
<path d="M49.0784 105.725C48.056 102.77 50.2142 99.3402 50.2142 99.3402C50.2142 99.3402 54.0302 100.703 55.0526 103.659C56.075 106.615 53.9168 110.044 53.9168 110.044C53.9168 110.044 50.1008 108.681 49.0784 105.725Z" fill="#263238" stroke="#263238" stroke-miterlimit="10"/>
<path d="M23.5598 97.7052C26.2664 98.7198 27.4352 102.277 27.4352 102.277C27.4352 102.277 24.2162 104.19 21.5096 103.175C18.803 102.161 17.6342 98.6034 17.6342 98.6034C17.6342 98.6034 20.8538 96.6912 23.5598 97.7052Z" fill="#263238" stroke="#263238" stroke-miterlimit="10"/>
<path d="M30.7244 97.2666C30.5168 100.15 27.4358 102.277 27.4358 102.277C27.4358 102.277 24.6902 99.7308 24.8978 96.8478C25.1054 93.9648 28.1864 91.8372 28.1864 91.8372C28.1864 91.8372 30.9314 94.3836 30.7244 97.2666Z" fill="#263238" stroke="#263238" stroke-miterlimit="10"/>
<path d="M32.5064 105.472C29.6198 105.318 27.4352 102.277 27.4352 102.277C27.4352 102.277 29.93 99.4848 32.8166 99.6378C35.7032 99.7908 37.8878 102.832 37.8878 102.832C37.8878 102.832 35.393 105.625 32.5064 105.472Z" fill="#263238" stroke="#263238" stroke-miterlimit="10"/>
<path d="M22.8746 106.166C23.8814 103.456 27.4352 102.277 27.4352 102.277C27.4352 102.277 29.357 105.491 28.3508 108.2C27.344 110.91 23.7896 112.089 23.7896 112.089C23.7896 112.089 21.8678 108.875 22.8746 106.166Z" fill="#263238" stroke="#263238" stroke-miterlimit="10"/>
<path d="M48.9074 100.892C51.866 99.8784 55.2896 102.047 55.2896 102.047C55.2896 102.047 53.9156 105.859 50.957 106.873C47.9984 107.887 44.5748 105.719 44.5748 105.719C44.5748 105.719 45.9488 101.906 48.9074 100.892Z" fill="#92E3A9"/>
<path d="M54.5912 95.5986C56.4008 98.1498 55.2896 102.046 55.2896 102.046C55.2896 102.046 51.2444 101.807 49.4348 99.2562C47.6252 96.705 48.7364 92.8086 48.7364 92.8086C48.7364 92.8086 52.7816 93.048 54.5912 95.5986Z" fill="#92E3A9"/>
<path d="M61.7234 101.228C59.2064 103.085 55.2896 102.047 55.2896 102.047C55.2896 102.047 55.4534 97.998 57.9698 96.141C60.4868 94.284 64.4036 95.322 64.4036 95.322C64.4036 95.322 64.2398 99.3708 61.7234 101.228Z" fill="#92E3A9"/>
<path d="M54.1538 108.432C53.1314 105.476 55.2896 102.047 55.2896 102.047C55.2896 102.047 59.1056 103.41 60.128 106.366C61.1504 109.321 58.9922 112.751 58.9922 112.751C58.9922 112.751 55.1762 111.388 54.1538 108.432Z" fill="#92E3A9"/>
<path d="M39.4316 123.567C39.4316 123.567 42.1382 123.567 43.4918 125.935C44.8454 128.303 44.8454 131.011 44.8454 131.011C44.8454 131.011 39.0932 130.334 39.4316 123.567Z" fill="#263238" stroke="#263238" stroke-miterlimit="10"/>
<path d="M41.462 137.44C41.462 137.44 44.1686 137.44 45.5222 139.808C46.8758 142.176 46.8758 144.883 46.8758 144.883C46.8758 144.883 41.1236 144.206 41.462 137.44Z" fill="#263238" stroke="#263238" stroke-miterlimit="10"/>
<path d="M45.8606 151.312C45.8606 151.312 48.5672 151.312 49.9208 153.68C51.2744 156.048 51.2744 158.755 51.2744 158.755C51.2744 158.755 45.5222 158.079 45.8606 151.312Z" fill="#263238" stroke="#263238" stroke-miterlimit="10"/>
<path d="M38.9042 129.61C38.9042 129.61 40.6178 131.705 39.6416 134.252C38.6654 136.799 36.5702 138.513 36.5702 138.513C36.5702 138.513 33.452 133.633 38.9042 129.61Z" fill="#263238" stroke="#263238" stroke-miterlimit="10"/>
<path d="M43.0928 145.993C43.0928 145.993 44.8064 148.088 43.8302 150.635C42.854 153.182 40.7588 154.897 40.7588 154.897C40.7588 154.897 37.6406 150.016 43.0928 145.993Z" fill="#263238" stroke="#263238" stroke-miterlimit="10"/>
<path d="M38.7548 120.522C38.7548 120.522 38.4164 140.485 47.552 154.696" stroke="#263238" stroke-miterlimit="10"/>
<path d="M58.5866 112.67C58.5866 112.67 56.2544 112.67 55.0886 114.71C53.9228 116.751 53.9228 119.083 53.9228 119.083C53.9228 119.083 58.8782 118.5 58.5866 112.67Z" fill="#263238" stroke="#263238" stroke-miterlimit="10"/>
<path d="M56.8376 124.621C56.8376 124.621 54.5054 124.621 53.3396 126.662C52.1738 128.702 52.1738 131.035 52.1738 131.035C52.1738 131.035 57.1292 130.451 56.8376 124.621Z" fill="#263238" stroke="#263238" stroke-miterlimit="10"/>
<path d="M53.048 136.573C53.048 136.573 50.7158 136.573 49.55 138.614C48.3842 140.654 48.3842 142.987 48.3842 142.987C48.3842 142.987 53.339 142.403 53.048 136.573Z" fill="#263238" stroke="#263238" stroke-miterlimit="10"/>
<path d="M59.0408 117.876C59.0408 117.876 57.5642 119.681 58.4054 121.876C59.2466 124.07 61.0514 125.547 61.0514 125.547C61.0514 125.547 63.7382 121.342 59.0408 117.876Z" fill="#263238" stroke="#263238" stroke-miterlimit="10"/>
<path d="M55.4324 131.991C55.4324 131.991 53.9558 133.796 54.797 135.991C55.6382 138.185 57.443 139.662 57.443 139.662C57.443 139.662 60.1298 135.457 55.4324 131.991Z" fill="#263238" stroke="#263238" stroke-miterlimit="10"/>
<path d="M59.1698 110.046C59.1698 110.046 59.4614 127.245 51.5906 139.489" stroke="#263238" stroke-miterlimit="10"/>
<path d="M17.5082 103.266C19.5056 114.421 29.2508 122.89 40.9802 122.89C52.7102 122.89 62.4554 114.421 64.4522 103.266H17.5082Z" fill="white" stroke="#263238" stroke-miterlimit="10"/>
<path d="M51.6386 101.575C51.6386 101.575 51.3002 113.304 48.5936 125.816C45.887 138.327 46.2254 144.583 48.5936 153.967C50.9618 163.35 48.932 168.042 47.5784 173.125C46.2248 178.207 44.8718 182.508 44.8718 182.508" stroke="#263238" stroke-miterlimit="10"/>
<path d="M50.9618 109.785C50.9618 109.785 46.9016 112.913 46.5632 116.041C46.2248 119.168 46.9016 121.906 46.9016 121.906C46.9016 121.906 51.977 120.341 50.9618 109.785Z" fill="#92E3A9"/>
<path d="M47.5784 130.507C47.5784 130.507 43.5182 133.635 43.1798 136.763C42.8414 139.891 43.5182 142.628 43.5182 142.628C43.5182 142.628 48.5936 141.064 47.5784 130.507Z" fill="#92E3A9"/>
<path d="M48.2552 154.748C48.2552 154.748 44.195 157.876 43.8566 161.003C43.5182 164.131 44.195 166.868 44.195 166.868C44.195 166.868 49.2698 165.305 48.2552 154.748Z" fill="#92E3A9"/>
<path d="M46.2248 177.425C46.2248 177.425 42.1646 180.553 41.8262 183.68C41.4878 186.808 42.1646 189.545 42.1646 189.545C42.1646 189.545 47.24 187.982 46.2248 177.425Z" fill="#92E3A9"/>
<path d="M51.6386 108.221C51.6386 108.221 54.3452 108.221 55.6988 110.958C57.0524 113.695 57.0524 116.823 57.0524 116.823C57.0524 116.823 51.3002 116.041 51.6386 108.221Z" fill="#92E3A9"/>
<path d="M49.2698 125.424C49.2698 125.424 51.9764 125.424 53.33 128.161C54.6836 130.898 54.6836 134.026 54.6836 134.026C54.6836 134.026 48.9314 133.244 49.2698 125.424Z" fill="#92E3A9"/>
<path d="M47.5784 144.583C47.5784 144.583 50.285 144.583 51.6386 147.32C52.9922 150.056 52.9922 153.184 52.9922 153.184C52.9922 153.184 47.24 152.402 47.5784 144.583Z" fill="#92E3A9"/>
<path d="M49.6082 165.695C49.6082 165.695 52.3148 165.695 53.6684 168.432C55.022 171.169 55.022 174.297 55.022 174.297C55.022 174.297 49.2698 173.515 49.6082 165.695Z" fill="#92E3A9"/>
<path d="M30.3692 103.055C30.3692 103.055 27.6158 106.988 27.6158 113.417C27.6158 119.846 33.7064 127.628 33.0296 135.748C32.3528 143.869 30.9998 146.575 30.9998 154.357C30.9998 162.139 32.015 165.184 32.015 165.184" stroke="#263238" stroke-miterlimit="10"/>
<path d="M26.939 111.386C26.939 111.386 22.8788 111.386 21.8636 114.093C20.8484 116.8 20.8484 118.492 20.8484 118.492C20.8484 118.492 23.8934 118.153 24.9086 116.462C25.9238 114.77 26.939 111.386 26.939 111.386Z" fill="#92E3A9"/>
<path d="M29.3072 121.537C29.3072 121.537 25.247 124.244 24.9086 126.951C24.5702 129.658 25.247 132.026 25.247 132.026C25.247 132.026 30.3224 130.673 29.3072 121.537Z" fill="#92E3A9"/>
<path d="M30.6608 152.665C30.6608 152.665 26.6006 155.372 26.2622 158.079C25.9238 160.786 26.6006 163.154 26.6006 163.154C26.6006 163.154 31.676 161.801 30.6608 152.665Z" fill="#92E3A9"/>
<path d="M32.3528 138.116C32.3528 138.116 28.2926 140.823 27.9542 143.53C27.6158 146.237 28.2926 148.606 28.2926 148.606C28.2926 148.606 33.3674 147.251 32.3528 138.116Z" fill="#92E3A9"/>
<path d="M27.6158 113.417C27.6158 113.417 30.3224 113.417 31.676 115.785C33.0296 118.154 33.0296 120.86 33.0296 120.86C33.0296 120.86 27.2774 120.184 27.6158 113.417Z" fill="#92E3A9"/>
<path d="M31.676 146.914C31.676 146.914 34.3826 146.914 35.7362 149.282C37.0898 151.65 37.0898 154.357 37.0898 154.357C37.0898 154.357 31.3376 153.68 31.676 146.914Z" fill="#92E3A9"/>
<path d="M31.676 165.523C31.676 165.523 34.3826 165.523 35.7362 167.891C37.0898 170.26 37.0898 172.966 37.0898 172.966C37.0898 172.966 31.3376 172.289 31.676 165.523Z" fill="#92E3A9"/>
<path d="M32.6906 129.319C32.6906 129.319 35.3972 129.319 36.7508 131.687C38.1044 134.056 38.1044 136.763 38.1044 136.763C38.1044 136.763 32.3528 136.086 32.6906 129.319Z" fill="#92E3A9"/>
<path d="M27.8702 94.5606C30.0098 96.8424 29.4386 100.854 29.4386 100.854C29.4386 100.854 25.3988 101.167 23.2592 98.8854C21.1196 96.6042 21.6908 92.592 21.6908 92.592C21.6908 92.592 25.7306 92.2794 27.8702 94.5606Z" fill="#92E3A9"/>
<path d="M35.0306 97.5696C33.4478 100.267 29.438 100.854 29.438 100.854C29.438 100.854 27.995 97.0674 29.5784 94.3698C31.1612 91.6722 35.171 91.0854 35.171 91.0854C35.171 91.0854 36.614 94.872 35.0306 97.5696Z" fill="#92E3A9"/>
<path d="M32.8268 106.384C30.1004 104.852 29.4386 100.854 29.4386 100.854C29.4386 100.854 33.1976 99.3408 35.924 100.873C38.6504 102.406 39.3122 106.403 39.3122 106.403C39.3122 106.403 35.5532 107.917 32.8268 106.384Z" fill="#92E3A9"/>
<path d="M23.15 102.44C25.4252 100.294 29.4386 100.854 29.4386 100.854C29.4386 100.854 29.7626 104.893 27.4874 107.039C25.2122 109.186 21.1988 108.625 21.1988 108.625C21.1988 108.625 20.8742 104.586 23.15 102.44Z" fill="#92E3A9"/>
<path d="M39.0608 101.426C41.2886 99.2304 45.3128 99.7014 45.3128 99.7014C45.3128 99.7014 45.7256 103.732 43.4984 105.928C41.2706 108.124 37.2464 107.653 37.2464 107.653C37.2464 107.653 36.833 103.621 39.0608 101.426Z" fill="#92E3A9"/>
<path d="M41.8904 94.1928C44.6264 95.7084 45.3128 99.702 45.3128 99.702C45.3128 99.702 41.5634 101.239 38.8274 99.723C36.0914 98.2074 35.405 94.2138 35.405 94.2138C35.405 94.2138 39.1544 92.6772 41.8904 94.1928Z" fill="#92E3A9"/>
<path d="M50.7566 96.1764C49.2926 98.9406 45.3128 99.7014 45.3128 99.7014C45.3128 99.7014 43.7066 95.9814 45.1706 93.2172C46.6346 90.453 50.6144 89.6922 50.6144 89.6922C50.6144 89.6922 52.2206 93.4128 50.7566 96.1764Z" fill="#92E3A9"/>
<path d="M47.0546 105.949C44.8526 103.727 45.3128 99.7014 45.3128 99.7014C45.3128 99.7014 49.3424 99.2766 51.5444 101.498C53.7464 103.72 53.2862 107.746 53.2862 107.746C53.2862 107.746 49.2566 108.17 47.0546 105.949Z" fill="#92E3A9"/>
<path d="M17.5082 103.266L40.9802 21.4512L64.4528 103.266" stroke="#263238" stroke-miterlimit="10"/>
<path d="M44.0894 17.4H37.8716V25.5024H44.0894V17.4Z" fill="white" stroke="#263238" stroke-miterlimit="10"/>
<path d="M117.922 114.509C117.922 114.509 107.314 112.098 99.5984 116.197C91.8836 120.295 90.9188 126.082 88.7492 134.038C86.579 141.994 81.5162 150.432 76.9352 157.424C72.3542 164.416 79.8284 174.542 91.4012 178.64C102.974 182.739 122.985 182.257 131.905 176.953C140.826 171.649 137.933 162.487 135.763 155.254C133.593 148.021 132.387 143.681 132.387 141.27C132.387 138.859 136.976 137.268 133.834 127.528C131.423 120.054 124.191 113.063 117.922 114.509Z" fill="#263238" stroke="#263238" stroke-miterlimit="10" stroke-linecap="round" stroke-linejoin="round"/>
<path d="M89.9204 145.892C87.914 146.69 86.6894 147.036 86.6894 147.036" stroke="#828282" stroke-miterlimit="10" stroke-linecap="round" stroke-linejoin="round"/>
<path d="M115.759 123.824C115.759 123.824 112.939 131.2 104.045 137.924C99.935 141.032 95.9186 143.213 92.7854 144.66" stroke="#828282" stroke-miterlimit="10" stroke-linecap="round" stroke-linejoin="round"/>
<path d="M107.77 121.994C106.105 124.115 103.41 127.542 99.4892 132.501C92.1134 141.829 90.161 143.565 86.9066 144.649" stroke="#828282" stroke-miterlimit="10" stroke-linecap="round" stroke-linejoin="round"/>
<path d="M109.902 119.268C109.902 119.268 109.538 119.737 108.754 120.737" stroke="#828282" stroke-miterlimit="10" stroke-linecap="round" stroke-linejoin="round"/>
<path d="M118.579 116.665C118.579 116.665 126.606 123.173 124.003 127.729" stroke="#828282" stroke-miterlimit="10" stroke-linecap="round" stroke-linejoin="round"/>
<path d="M133.119 130.516C133.48 131.779 133.47 133.105 132.897 134.454" stroke="#828282" stroke-miterlimit="10" stroke-linecap="round" stroke-linejoin="round"/>
<path d="M123.135 120.787C123.135 120.787 129.59 124.069 132.244 128.536" stroke="#828282" stroke-miterlimit="10" stroke-linecap="round" stroke-linejoin="round"/>
<path d="M141.118 255.555C139.251 256.115 110.304 268.814 101.527 271.802C92.7494 274.79 84.5324 275.351 84.5324 275.351L88.7972 284.164C94.8638 285.232 101.241 285.929 107.938 286.209C134.431 287.313 151.39 283.394 164.43 277.507C162.27 272.338 158.52 263.758 155.873 259.85C151.95 254.061 142.986 254.995 141.118 255.555Z" fill="#263238" stroke="#263238" stroke-miterlimit="10" stroke-linecap="round" stroke-linejoin="round"/>
<path d="M129.705 261.569C144.001 257.597 149.38 256.146 156.619 259.85C155.872 258.356 152.323 252.753 152.323 252.753C145.974 251.072 125.244 256.301 108.996 262.838C92.7488 269.374 82.8506 264.145 82.8506 264.145C82.8506 264.145 82.664 275.911 86.7722 276.844C86.7722 276.844 115.409 265.54 129.705 261.569Z" fill="#92E3A9" stroke="#263238" stroke-miterlimit="10" stroke-linecap="round" stroke-linejoin="round"/>
<path d="M96.968 168.71C96.968 168.71 66.4166 178.426 65.2964 180.667C64.1756 182.908 53.7176 223.246 53.7176 223.246C53.7176 223.246 57.4526 228.102 59.507 229.596C61.5614 231.09 65.483 231.837 68.8448 229.596C72.2066 227.355 76.6886 218.391 76.6886 218.391C76.6886 218.391 82.6646 263.399 82.8512 264.146C83.0378 264.893 85.8392 267.694 90.3212 269.002C94.8032 270.309 114.786 263.026 125.805 259.85C136.823 256.676 145.974 255.555 150.082 254.808C154.191 254.061 155.498 252.38 154.751 249.019C154.004 245.657 154.004 238.561 154.004 238.561C154.004 238.561 161.848 244.723 163.155 241.362C164.463 238 157.74 224.927 154.751 212.228C151.763 199.529 150.642 183.095 145.04 180.293C139.437 177.492 117.587 171.329 117.587 171.329C117.587 171.329 102.403 167.635 97.5758 169.015" fill="#92E3A9"/>
<path d="M96.968 168.71C96.968 168.71 66.4166 178.426 65.2964 180.667C64.1756 182.908 53.7176 223.246 53.7176 223.246C53.7176 223.246 57.4526 228.102 59.507 229.596C61.5614 231.09 65.483 231.837 68.8448 229.596C72.2066 227.355 76.6886 218.391 76.6886 218.391C76.6886 218.391 82.6646 263.399 82.8512 264.146C83.0378 264.893 85.8392 267.694 90.3212 269.002C94.8032 270.309 114.786 263.026 125.805 259.85C136.823 256.676 145.974 255.555 150.082 254.808C154.191 254.061 155.498 252.38 154.751 249.019C154.004 245.657 154.004 238.561 154.004 238.561C154.004 238.561 161.848 244.723 163.155 241.362C164.463 238 157.74 224.927 154.751 212.228C151.763 199.529 150.642 183.095 145.04 180.293C139.437 177.492 117.587 171.329 117.587 171.329C117.587 171.329 102.403 167.635 97.5758 169.015" stroke="#263238" stroke-miterlimit="10" stroke-linecap="round" stroke-linejoin="round"/>
<path d="M134.739 198.954L137.383 225.861" stroke="#263238" stroke-miterlimit="10" stroke-linecap="round" stroke-linejoin="round"/>
<path d="M134.208 193.552L134.483 196.337" stroke="#263238" stroke-miterlimit="10" stroke-linecap="round" stroke-linejoin="round"/>
<path d="M112.337 224.524C113.073 224.998 113.829 225.447 114.599 225.861" stroke="#263238" stroke-miterlimit="10" stroke-linecap="round" stroke-linejoin="round"/>
<path d="M100.779 214.096C100.779 214.096 105.136 219.508 111.074 223.674" stroke="#263238" stroke-miterlimit="10" stroke-linecap="round" stroke-linejoin="round"/>
<path d="M104.328 221.192C104.328 221.192 108.81 225.114 114.412 228.289" stroke="#263238" stroke-miterlimit="10" stroke-linecap="round" stroke-linejoin="round"/>
<path d="M132.447 255.158C134.583 255.287 136.503 255.368 137.943 255.368" stroke="#263238" stroke-miterlimit="10" stroke-linecap="round" stroke-linejoin="round"/>
<path d="M113.105 253.501C113.105 253.501 121.952 254.422 129.612 254.971" stroke="#263238" stroke-miterlimit="10" stroke-linecap="round" stroke-linejoin="round"/>
<path d="M99.8456 254.808C99.8456 254.808 112.171 257.236 121.882 257.236" stroke="#263238" stroke-miterlimit="10" stroke-linecap="round" stroke-linejoin="round"/>
<path d="M98.3516 164.606C98.3516 164.606 94.9058 171.77 95.177 174.877C95.4476 177.985 100.033 183.094 106.942 183.655C113.852 184.215 119.455 179.733 120.202 177.679C120.949 175.624 122.069 169.088 122.069 169.088C122.069 169.088 113.478 171.329 106.569 167.407C99.659 163.486 98.5382 162.925 98.5382 162.925L98.3516 164.606Z" fill="#92E3A9" stroke="#263238" stroke-miterlimit="10" stroke-linecap="round" stroke-linejoin="round"/>
<path d="M99.7868 181.175L102.097 173.887" stroke="#263238" stroke-miterlimit="10" stroke-linecap="round" stroke-linejoin="round"/>
<path d="M102.453 172.82L102.986 170.866" stroke="#263238" stroke-miterlimit="10" stroke-linecap="round" stroke-linejoin="round"/>
<path d="M106.185 177.264L104.23 183.13" stroke="#263238" stroke-miterlimit="10" stroke-linecap="round" stroke-linejoin="round"/>
<path d="M96.4094 177.797L98.1866 172.288" stroke="#263238" stroke-miterlimit="10" stroke-linecap="round" stroke-linejoin="round"/>
<path d="M122.744 128.975C122.744 128.975 117.681 136.208 111.654 139.101C105.626 141.994 99.3578 143.682 99.3578 143.682C99.3578 143.682 99.1166 147.058 97.9112 147.539C96.7058 148.022 95.2592 146.334 95.2592 146.334L91.643 147.298C91.643 147.298 90.4376 148.986 91.4018 150.914C92.366 152.843 95.2592 153.325 95.2592 153.325C95.2592 153.325 97.1882 162.728 99.3578 165.621C101.527 168.514 109.243 174.301 114.788 173.577C120.333 172.853 129.495 163.21 129.736 159.593C129.977 155.977 130.459 148.503 130.7 144.646C130.941 140.788 131.664 138.618 129.976 136.207C128.289 133.796 122.744 128.975 122.744 128.975Z" fill="white" stroke="#263238" stroke-miterlimit="10" stroke-linecap="round" stroke-linejoin="round"/>
<path d="M106.349 151.397C106.349 151.397 108.76 153.567 112.617 152.12" stroke="#263238" stroke-miterlimit="10" stroke-linecap="round" stroke-linejoin="round"/>
<path d="M120.574 152.362C120.574 152.362 124.19 154.049 126.36 152.362" stroke="#263238" stroke-miterlimit="10" stroke-linecap="round" stroke-linejoin="round"/>
<path d="M106.59 146.334C106.59 146.334 111.171 144.887 115.029 146.334" stroke="#263238" stroke-width="2" stroke-miterlimit="10" stroke-linecap="round" stroke-linejoin="round"/>
<path d="M120.574 146.816C120.574 146.816 126.119 145.852 127.807 147.539" stroke="#263238" stroke-width="2" stroke-miterlimit="10" stroke-linecap="round" stroke-linejoin="round"/>
<path d="M119.127 159.353C119.127 159.353 116.958 160.8 114.787 160.077" stroke="#263238" stroke-miterlimit="10" stroke-linecap="round" stroke-linejoin="round"/>
<path d="M110.448 162.487C110.448 162.487 115.029 166.103 120.815 163.211" stroke="#263238" stroke-miterlimit="10" stroke-linecap="round" stroke-linejoin="round"/>
<path d="M161.661 238.56C158.86 234.078 150.829 233.144 147.841 234.265C144.853 235.385 141.492 234.078 141.492 234.078L132.154 244.349C132.154 244.349 142.239 248.831 147.094 251.819C151.95 254.807 155.685 254.621 160.167 249.952C164.649 245.283 163.155 240.614 163.155 240.614" fill="#92E3A9"/>
<path d="M161.661 238.56C158.86 234.078 150.829 233.144 147.841 234.265C144.853 235.385 141.492 234.078 141.492 234.078L132.154 244.349C132.154 244.349 142.239 248.831 147.094 251.819C151.95 254.807 155.685 254.621 160.167 249.952C164.649 245.283 163.155 240.614 163.155 240.614" stroke="#263238" stroke-miterlimit="10" stroke-linecap="round" stroke-linejoin="round"/>
<path d="M133.088 235.199C133.088 235.199 130.473 239.867 131.407 243.043C132.341 246.217 139.812 243.043 142.612 238C145.413 232.958 136.263 230.156 133.088 235.199Z" fill="white" stroke="#263238" stroke-miterlimit="10" stroke-linecap="round" stroke-linejoin="round"/>
<path d="M135.363 207.634L123.286 230.235C122.965 230.835 123.334 231.571 124.006 231.674L135.437 233.421C135.825 233.48 136.211 233.304 136.42 232.972L150.239 211.034C150.611 210.443 150.268 209.664 149.582 209.539L136.41 207.129C135.988 207.051 135.565 207.256 135.363 207.634Z" fill="#263238" stroke="#263238" stroke-miterlimit="10" stroke-linecap="round" stroke-linejoin="round"/>
<path d="M137.01 239.12C137.01 239.12 130.099 235.759 128.979 234.265C127.858 232.771 128.606 232.024 128.606 232.024C128.606 232.024 126.178 230.903 125.244 229.409C124.311 227.915 126.364 227.541 126.364 227.541L138.69 229.969C138.69 229.969 132.154 227.354 130.846 227.354C129.539 227.354 128.792 226.233 129.166 225.113C129.539 223.992 129.913 223.619 132.528 224.366C135.142 225.113 141.492 226.607 141.492 226.607C141.492 226.607 141.305 224.926 140.745 224.552C140.184 224.179 135.142 222.498 134.022 221.378C132.901 220.257 133.835 219.323 135.142 219.323C136.45 219.323 144.853 222.311 145.6 222.872C146.347 223.432 145.6 228.101 145.6 228.101C145.6 228.101 145.6 232.583 144.853 234.824C144.106 237.065 139.998 241.36 139.998 241.36" fill="white"/>
<path d="M137.01 239.12C137.01 239.12 130.099 235.759 128.979 234.265C127.858 232.771 128.606 232.024 128.606 232.024C128.606 232.024 126.178 230.903 125.244 229.409C124.311 227.915 126.364 227.541 126.364 227.541L138.69 229.969C138.69 229.969 132.154 227.354 130.846 227.354C129.539 227.354 128.792 226.233 129.166 225.113C129.539 223.992 129.913 223.619 132.528 224.366C135.142 225.113 141.492 226.607 141.492 226.607C141.492 226.607 141.305 224.926 140.745 224.552C140.184 224.179 135.142 222.498 134.022 221.378C132.901 220.257 133.835 219.323 135.142 219.323C136.45 219.323 144.853 222.311 145.6 222.872C146.347 223.432 145.6 228.101 145.6 228.101C145.6 228.101 145.6 232.583 144.853 234.824C144.106 237.065 139.998 241.36 139.998 241.36" stroke="#263238" stroke-miterlimit="10" stroke-linecap="round" stroke-linejoin="round"/>
<path d="M128.605 232.024L137.757 235.759" stroke="#263238" stroke-miterlimit="10" stroke-linecap="round" stroke-linejoin="round"/>
<path d="M138.69 229.97L143.359 232.958" stroke="#263238" stroke-miterlimit="10" stroke-linecap="round" stroke-linejoin="round"/>
<path d="M141.492 226.608C141.492 226.608 143.733 227.542 144.48 228.476" stroke="#263238" stroke-miterlimit="10" stroke-linecap="round" stroke-linejoin="round"/>
<path d="M78.2126 254.183V281.848C73.3208 280.555 68.6606 278.996 64.238 277.199V254.183H78.2126Z" fill="#263238" stroke="#263238" stroke-miterlimit="10" stroke-linecap="round" stroke-linejoin="round"/>
<path d="M78.4178 257.74H63.7808C61.3676 257.74 59.411 255.784 59.411 253.37V243.307C59.411 240.894 61.3676 238.937 63.7808 238.937H78.4178C80.831 238.937 82.7876 240.894 82.7876 243.307V253.37C82.7876 255.784 80.831 257.74 78.4178 257.74Z" fill="#263238" stroke="#263238" stroke-miterlimit="10" stroke-linecap="round" stroke-linejoin="round"/>
<path d="M127.447 239.019C120.112 235.286 98.3972 232.579 72.7484 232.579C47.0996 232.579 25.385 235.285 18.05 239.019H15.3944V241.799C15.3944 246.891 41.0726 251.019 72.7484 251.019C104.424 251.019 130.102 246.891 130.102 241.799V239.019H127.447Z" fill="#263238" stroke="#263238" stroke-miterlimit="10" stroke-linecap="round" stroke-linejoin="round"/>
<path d="M72.7484 248.239C104.424 248.239 130.102 244.111 130.102 239.019C130.102 233.927 104.424 229.799 72.7484 229.799C41.0727 229.799 15.3944 233.927 15.3944 239.019C15.3944 244.111 41.0727 248.239 72.7484 248.239Z" fill="white" stroke="#263238" stroke-miterlimit="10" stroke-linecap="round" stroke-linejoin="round"/>
<path d="M89.366 176.617C89.366 176.617 86.4776 164.302 86.4776 163.085C86.4776 161.869 93.0152 157.764 94.5356 156.852C96.056 155.94 97.424 157.308 97.424 157.308C97.424 157.308 98.6402 158.372 99.5528 158.524C100.465 158.676 101.225 159.74 101.225 160.957C101.225 162.173 101.529 166.582 101.529 167.647C101.529 168.711 99.857 169.927 98.9444 169.927C98.0318 169.927 98.1842 168.103 98.1842 168.103C98.1842 168.103 97.424 168.711 96.968 168.711C96.512 168.711 96.056 168.863 96.056 168.863C96.056 168.863 96.6644 175.705 95.4476 177.985C94.2314 180.266 93.7754 181.938 93.7754 181.938L71.5778 228.614C71.5778 228.614 67.9292 235.456 63.0638 235.607C58.1984 235.759 53.4854 232.415 52.877 227.854C52.2686 223.292 54.3974 218.123 57.59 214.474C60.7826 210.825 86.1734 181.938 89.366 176.617Z" fill="white" stroke="#263238" stroke-miterlimit="10" stroke-linecap="round" stroke-linejoin="round"/>
<path d="M96.0554 168.863V165.67L99.3572 165.622L97.5758 169.015C97.5758 169.015 97.1198 168.406 96.0554 168.863Z" fill="white" stroke="#263238" stroke-miterlimit="10" stroke-linecap="round" stroke-linejoin="round"/>
<path d="M99.5528 158.524C99.5528 158.524 92.8634 161.564 91.799 162.476C90.7346 163.388 90.7346 163.388 90.7346 163.388" stroke="#263238" stroke-miterlimit="10" stroke-linecap="round" stroke-linejoin="round"/>
<path d="M97.424 157.307C97.424 157.307 90.5822 160.652 88.454 162.477" stroke="#263238" stroke-miterlimit="10" stroke-linecap="round" stroke-linejoin="round"/>
<path d="M87.5414 161.413C87.5414 161.413 87.6152 161.332 87.7448 161.191C88.6892 160.168 92.6138 155.939 93.0146 155.939C93.4706 155.939 94.535 156.851 94.535 156.851L87.5414 161.413Z" stroke="#263238" stroke-miterlimit="10" stroke-linecap="round" stroke-linejoin="round"/>
<path d="M83.6792 184.048C75.0698 194.571 60.0008 211.718 57.59 214.474C54.3974 218.123 52.2686 223.292 52.877 227.854C53.4848 232.415 58.1984 235.76 63.0638 235.607C67.9292 235.456 71.5778 228.614 71.5778 228.614L90.5822 188.652C88.0064 187.45 85.4696 185.548 83.6792 184.048Z" fill="#92E3A9" stroke="#263238" stroke-miterlimit="10" stroke-linecap="round" stroke-linejoin="round"/>
<path d="M35.4386 200.825C35.4014 201.64 35.5022 202.511 35.846 203.371C37.094 206.492 37.4582 207.777 36.9512 210.31" stroke="#263238" stroke-miterlimit="10" stroke-linecap="round"/>
<path d="M36.6428 196.84C36.6428 196.84 36.1076 197.704 35.7488 198.973" stroke="#263238" stroke-miterlimit="10" stroke-linecap="round"/>
<path d="M41.1038 196.84C41.1038 196.84 39.0326 200.185 40.307 203.372C41.555 206.492 41.9192 207.778 41.4122 210.311" stroke="#263238" stroke-miterlimit="10" stroke-linecap="round"/>
<path d="M46.0935 208.471C46.0839 209.033 46.0104 209.626 45.8732 210.31" stroke="#263238" stroke-miterlimit="10" stroke-linecap="round"/>
<path d="M45.5642 196.84C45.5642 196.84 43.493 200.185 44.7674 203.372C45.2228 204.511 45.5606 205.405 45.7814 206.205" stroke="#263238" stroke-miterlimit="10" stroke-linecap="round"/>
<path d="M49.3934 217.062C49.3934 217.062 51.4604 214.995 52.964 216.686C54.4676 218.378 53.9036 226.834 52.5884 229.465C51.2732 232.096 48.2564 229.601 48.2564 229.601L48.266 227.774C48.266 227.774 49.613 229.021 51.1166 227.518C52.6202 226.015 52.2122 220.069 51.6482 219.13C51.0848 218.19 48.8294 219.505 48.8294 219.505L49.3934 217.062Z" fill="white" stroke="#263238" stroke-miterlimit="10" stroke-linecap="round" stroke-linejoin="round"/>
<path d="M45.8216 237.626H36.3536C34.9982 237.626 33.8732 236.579 33.7766 235.226L32.1626 212.567H50.0132L48.3992 235.226C48.3026 236.578 47.1776 237.626 45.8216 237.626Z" fill="white" stroke="#263238" stroke-miterlimit="10" stroke-linecap="round" stroke-linejoin="round"/>
</svg>
