<svg width="95" height="28" viewBox="0 0 95 28" fill="none" xmlns="http://www.w3.org/2000/svg">
<path d="M16.568 6.912C15.56 6.36 14.528 5.904 13.472 5.544C12.44 5.184 11.468 5.004 10.556 5.004C9.428 5.004 8.54 5.232 7.892 5.688C7.244 6.144 6.92 6.828 6.92 7.74C6.92 8.364 7.16 8.928 7.64 9.432C8.144 9.912 8.78 10.344 9.548 10.728C10.34 11.112 11.156 11.46 11.996 11.772C12.764 12.06 13.52 12.408 14.264 12.816C15.032 13.2 15.716 13.692 16.316 14.292C16.916 14.868 17.396 15.6 17.756 16.488C18.116 17.352 18.296 18.42 18.296 19.692C18.296 21.036 17.948 22.284 17.252 23.436C16.556 24.588 15.536 25.524 14.192 26.244C12.848 26.94 11.192 27.288 9.224 27.288C8.216 27.288 7.184 27.192 6.128 27C5.096 26.784 4.076 26.472 3.068 26.064C2.06 25.632 1.088 25.092 0.152 24.444L2.456 20.376C3.08 20.832 3.752 21.24 4.472 21.6C5.216 21.936 5.96 22.2 6.704 22.392C7.448 22.584 8.132 22.68 8.756 22.68C9.38 22.68 10.004 22.596 10.628 22.428C11.276 22.236 11.804 21.924 12.212 21.492C12.644 21.06 12.86 20.46 12.86 19.692C12.86 19.164 12.68 18.684 12.32 18.252C11.984 17.82 11.516 17.424 10.916 17.064C10.34 16.704 9.704 16.392 9.008 16.128C8.192 15.816 7.352 15.456 6.488 15.048C5.624 14.64 4.808 14.148 4.04 13.572C3.296 12.972 2.684 12.24 2.204 11.376C1.748 10.488 1.52 9.408 1.52 8.136C1.52 6.6 1.856 5.268 2.528 4.14C3.224 3.012 4.196 2.124 5.444 1.476C6.692 0.803998 8.132 0.431999 9.764 0.36C11.9 0.36 13.628 0.611999 14.948 1.116C16.292 1.62 17.492 2.22 18.548 2.916L16.568 6.912ZM44.9003 24.336C44.5883 24.672 44.0963 25.02 43.4243 25.38C42.7523 25.716 41.9723 26.028 41.0843 26.316C40.2203 26.604 39.3323 26.832 38.4203 27C37.5083 27.192 36.6443 27.288 35.8283 27.288C33.6683 27.288 31.7243 26.976 29.9963 26.352C28.2683 25.704 26.7923 24.816 25.5683 23.688C24.3443 22.536 23.4083 21.18 22.7603 19.62C22.1123 18.06 21.7883 16.356 21.7883 14.508C21.7883 12.084 22.1483 9.984 22.8683 8.208C23.6123 6.408 24.6083 4.92 25.8563 3.744C27.1283 2.544 28.5803 1.656 30.2123 1.08C31.8683 0.503999 33.5963 0.215999 35.3963 0.215999C37.1003 0.215999 38.6603 0.407999 40.0763 0.791998C41.4923 1.152 42.6923 1.608 43.6763 2.16L41.9843 7.02C41.5523 6.78 40.9763 6.54 40.2563 6.3C39.5363 6.06 38.8043 5.868 38.0603 5.724C37.3163 5.556 36.6563 5.472 36.0803 5.472C34.6403 5.472 33.3683 5.652 32.2643 6.012C31.1603 6.372 30.2243 6.912 29.4563 7.632C28.7123 8.352 28.1483 9.252 27.7643 10.332C27.3803 11.388 27.1883 12.624 27.1883 14.04C27.1883 15.288 27.4043 16.416 27.8363 17.424C28.2683 18.408 28.8683 19.248 29.6363 19.944C30.4283 20.64 31.3523 21.168 32.4083 21.528C33.4883 21.888 34.6763 22.068 35.9723 22.068C36.7163 22.068 37.4003 22.02 38.0243 21.924C38.6483 21.804 39.1763 21.624 39.6083 21.384V18.18H35.0363V13.14H44.9003V24.336ZM70.7022 24.804C70.4142 25.044 69.8742 25.368 69.0822 25.776C68.3142 26.184 67.3662 26.544 66.2382 26.856C65.1102 27.168 63.8622 27.312 62.4942 27.288C60.4062 27.24 58.5342 26.868 56.8782 26.172C55.2462 25.452 53.8542 24.48 52.7022 23.256C51.5742 22.032 50.7102 20.628 50.1102 19.044C49.5102 17.46 49.2102 15.768 49.2102 13.968C49.2102 11.952 49.5102 10.104 50.1102 8.424C50.7342 6.744 51.6102 5.292 52.7382 4.068C53.8902 2.844 55.2582 1.896 56.8422 1.224C58.4262 0.551999 60.1782 0.215999 62.0982 0.215999C63.8742 0.215999 65.4462 0.455999 66.8142 0.935999C68.1822 1.416 69.2982 1.932 70.1622 2.484L68.1102 7.416C67.5102 6.96 66.7062 6.492 65.6982 6.012C64.7142 5.508 63.5742 5.256 62.2782 5.256C61.2702 5.256 60.2982 5.472 59.3622 5.904C58.4502 6.312 57.6342 6.9 56.9142 7.668C56.2182 8.436 55.6662 9.336 55.2582 10.368C54.8502 11.376 54.6462 12.48 54.6462 13.68C54.6462 14.952 54.8262 16.116 55.1862 17.172C55.5702 18.228 56.1102 19.14 56.8062 19.908C57.5022 20.652 58.3302 21.228 59.2902 21.636C60.2742 22.044 61.3782 22.248 62.6022 22.248C64.0182 22.248 65.2302 22.02 66.2382 21.564C67.2462 21.108 68.0142 20.628 68.5422 20.124L70.7022 24.804ZM75.9317 0.503998H94.0037V5.544H81.1517V11.196H92.5277V16.236H81.1517V21.96H94.5077V27H75.9317V0.503998Z" fill="#183059"/>
</svg>
